<svg width="607" height="23" viewBox="0 0 607 23" fill="none" xmlns="http://www.w3.org/2000/svg">
<path d="M12.0156 5.14453C12.0156 4.82552 11.7747 4.66602 11.293 4.66602C10.8177 4.66602 10.3099 4.95898 9.76953 5.54492C9.22917 6.13086 8.77018 6.86654 8.39258 7.75195C8.01497 8.63086 7.82617 9.44792 7.82617 10.2031C7.82617 10.9518 8.00521 11.5475 8.36328 11.9902C8.72786 12.4329 9.28451 12.6543 10.0332 12.6543C10.7624 12.6543 11.5078 12.5208 12.2695 12.2539C12.5234 12.1693 12.735 12.127 12.9043 12.127C13.0736 12.127 13.1582 12.1953 13.1582 12.332C13.1582 12.599 12.9206 12.8789 12.4453 13.1719C11.9701 13.4583 11.3711 13.6992 10.6484 13.8945C9.92578 14.0833 9.23242 14.1777 8.56836 14.1777C7.2207 14.1777 6.13672 13.8457 5.31641 13.1816C4.5026 12.5111 4.0957 11.6191 4.0957 10.5059C4.0957 9.80924 4.23893 9.11589 4.52539 8.42578C4.81836 7.72917 5.20573 7.10417 5.6875 6.55078C6.17578 5.9974 6.72266 5.50586 7.32812 5.07617C8.60417 4.17122 9.81836 3.71875 10.9707 3.71875C12.1296 3.71875 12.9824 3.97266 13.5293 4.48047C14.0827 4.98177 14.3594 5.67188 14.3594 6.55078C14.3594 7.59245 14.0078 8.3737 13.3047 8.89453C12.9336 9.17448 12.5527 9.31445 12.1621 9.31445C11.7715 9.31445 11.4492 9.2526 11.1953 9.12891C10.9414 9.00521 10.8145 8.81641 10.8145 8.5625C10.8145 8.45833 11.013 7.91471 11.4102 6.93164C11.8138 5.94857 12.0156 5.35286 12.0156 5.14453ZM1.16602 12.7129C0.690755 11.5931 0.453125 10.418 0.453125 9.1875C0.453125 7.95703 0.690755 6.7819 1.16602 5.66211C1.64779 4.54232 2.29557 3.57552 3.10938 2.76172C3.92318 1.94792 4.88997 1.30339 6.00977 0.828125C7.12956 0.346354 8.30469 0.105469 9.53516 0.105469C10.7656 0.105469 11.9408 0.346354 13.0605 0.828125C14.1803 1.30339 15.1471 1.94792 15.9609 2.76172C16.7747 3.57552 17.4193 4.54232 17.8945 5.66211C18.3763 6.7819 18.6172 7.95703 18.6172 9.1875C18.6172 10.418 18.3763 11.5931 17.8945 12.7129C17.4193 13.8327 16.7747 14.7995 15.9609 15.6133C15.1471 16.4271 14.1803 17.0716 13.0605 17.5469C11.9408 18.0286 10.7656 18.2695 9.53516 18.2695C8.30469 18.2695 7.12956 18.0286 6.00977 17.5469C4.88997 17.0716 3.92318 16.4271 3.10938 15.6133C2.29557 14.7995 1.64779 13.8327 1.16602 12.7129ZM1.57617 9.17773C1.57617 10.61 1.93099 11.9349 2.64062 13.1523C3.35026 14.3698 4.3138 15.3333 5.53125 16.043C6.7487 16.7526 8.07357 17.1074 9.50586 17.1074C10.5801 17.1074 11.6087 16.8991 12.5918 16.4824C13.5749 16.0592 14.4212 15.4961 15.1309 14.793C15.8405 14.0833 16.4036 13.2402 16.8203 12.2637C17.2435 11.2806 17.4551 10.252 17.4551 9.17773C17.4551 8.10352 17.2435 7.07487 16.8203 6.0918C16.4036 5.10872 15.8405 4.26237 15.1309 3.55273C14.4212 2.8431 13.5749 2.27995 12.5918 1.86328C11.6087 1.4401 10.5801 1.22852 9.50586 1.22852C8.43164 1.22852 7.40299 1.4401 6.41992 1.86328C5.44336 2.27995 4.60026 2.8431 3.89062 3.55273C3.1875 4.26237 2.62435 5.10872 2.20117 6.0918C1.78451 7.07487 1.57617 8.10352 1.57617 9.17773ZM22.8262 15.7402C22.2858 16.5215 21.8496 16.9121 21.5176 16.9121C20.7949 16.9121 20.3522 16.7461 20.1895 16.4141C20.1113 16.2708 20.0723 16.0918 20.0723 15.877C20.0723 15.3171 20.6745 14.4642 21.8789 13.3184C23.0833 12.1725 24.7923 10.89 27.0059 9.4707C28.6074 8.45508 29.6328 7.72266 30.082 7.27344C30.5573 6.79818 30.8372 6.41732 30.9219 6.13086C31.013 5.83789 31.0586 5.57096 31.0586 5.33008C31.0586 4.43815 30.4206 3.99219 29.1445 3.99219C27.862 3.99219 26.472 4.27214 24.9746 4.83203C24.3757 5.05339 24.0404 5.17708 23.9688 5.20312C23.8971 5.22917 23.8027 5.24219 23.6855 5.24219C23.334 5.24219 23.1582 5.08268 23.1582 4.76367C23.1582 4.58138 23.2038 4.41211 23.2949 4.25586C23.3926 4.0931 23.5684 3.88802 23.8223 3.64062C25.6322 1.89583 27.9531 1.02344 30.7852 1.02344C32.6211 1.02344 34.0371 1.42057 35.0332 2.21484C35.7949 2.82682 36.1758 3.67318 36.1758 4.75391C36.1758 6.09505 35.5703 7.24089 34.3594 8.19141C33.3047 9.02474 31.9017 9.81576 30.1504 10.5645C29.3171 10.9225 28.5163 11.2643 27.748 11.5898C25.821 12.3906 24.3594 13.1589 23.3633 13.8945C25.0755 13.8555 28.1224 13.4486 32.5039 12.6738C33.9427 12.4199 34.7956 12.293 35.0625 12.293C35.3294 12.293 35.5312 12.3483 35.668 12.459C35.8112 12.5697 35.8828 12.7617 35.8828 13.0352C35.8828 13.3021 35.7591 13.7904 35.5117 14.5C35.2643 15.2031 34.9355 15.8672 34.5254 16.4922C34.1152 17.1172 33.7441 17.446 33.4121 17.4785C33.0866 17.5176 32.7122 17.5371 32.2891 17.5371C31.1953 17.5371 29.6035 17.332 27.5137 16.9219C25.4238 16.5117 23.8613 16.1178 22.8262 15.7402ZM46.4883 4.2168C46.8984 4.2168 47.1035 4.34701 47.1035 4.60742C47.1035 4.7832 46.918 5.08594 46.5469 5.51562C45.8047 6.38802 45.2285 7.5306 44.8184 8.94336C44.4147 10.3496 44.2129 11.7852 44.2129 13.25C44.2129 15.1315 44.7077 16.0723 45.6973 16.0723C46.3874 16.0723 47.0514 15.5905 47.6895 14.627C48.3275 13.6569 48.8385 12.3711 49.2227 10.7695C49.6133 9.16797 49.8086 7.49154 49.8086 5.74023C49.8086 4.80924 49.584 4.10286 49.1348 3.62109C48.6921 3.13932 48.1582 2.89844 47.5332 2.89844C47.1882 2.89844 46.6966 2.97331 46.0586 3.12305C45.4271 3.27279 45.0723 3.34766 44.9941 3.34766C44.6947 3.34766 44.5449 3.21745 44.5449 2.95703C44.5449 2.78125 44.6719 2.58594 44.9258 2.37109C45.1862 2.14974 45.528 1.94141 45.9512 1.74609C46.9603 1.27083 48.0378 1.0332 49.1836 1.0332C50.3359 1.0332 51.2832 1.19271 52.0254 1.51172C52.7676 1.83073 53.373 2.27344 53.8418 2.83984C54.8118 3.99219 55.2969 5.44727 55.2969 7.20508C55.2969 8.42904 55.1276 9.58789 54.7891 10.6816C54.457 11.7689 53.9948 12.7259 53.4023 13.5527C52.8099 14.373 52.123 15.0859 51.3418 15.6914C49.7467 16.9089 47.9401 17.5176 45.9219 17.5176C43.8516 17.5176 42.263 16.9805 41.1562 15.9062C40.0755 14.8646 39.5352 13.4681 39.5352 11.7168C39.5352 10.584 39.7142 9.54557 40.0723 8.60156C40.4303 7.65755 40.9186 6.86654 41.5371 6.22852C42.1621 5.59049 42.8978 5.0957 43.7441 4.74414C44.597 4.39258 45.5117 4.2168 46.4883 4.2168ZM59.5059 15.7402C58.9655 16.5215 58.5293 16.9121 58.1973 16.9121C57.4746 16.9121 57.0319 16.7461 56.8691 16.4141C56.791 16.2708 56.752 16.0918 56.752 15.877C56.752 15.3171 57.3542 14.4642 58.5586 13.3184C59.763 12.1725 61.472 10.89 63.6855 9.4707C65.2871 8.45508 66.3125 7.72266 66.7617 7.27344C67.237 6.79818 67.5169 6.41732 67.6016 6.13086C67.6927 5.83789 67.7383 5.57096 67.7383 5.33008C67.7383 4.43815 67.1003 3.99219 65.8242 3.99219C64.5417 3.99219 63.1517 4.27214 61.6543 4.83203C61.0553 5.05339 60.7201 5.17708 60.6484 5.20312C60.5768 5.22917 60.4824 5.24219 60.3652 5.24219C60.0137 5.24219 59.8379 5.08268 59.8379 4.76367C59.8379 4.58138 59.8835 4.41211 59.9746 4.25586C60.0723 4.0931 60.248 3.88802 60.502 3.64062C62.3118 1.89583 64.6328 1.02344 67.4648 1.02344C69.3008 1.02344 70.7168 1.42057 71.7129 2.21484C72.4746 2.82682 72.8555 3.67318 72.8555 4.75391C72.8555 6.09505 72.25 7.24089 71.0391 8.19141C69.9844 9.02474 68.5814 9.81576 66.8301 10.5645C65.9967 10.9225 65.196 11.2643 64.4277 11.5898C62.5007 12.3906 61.0391 13.1589 60.043 13.8945C61.7552 13.8555 64.8021 13.4486 69.1836 12.6738C70.6224 12.4199 71.4753 12.293 71.7422 12.293C72.0091 12.293 72.2109 12.3483 72.3477 12.459C72.4909 12.5697 72.5625 12.7617 72.5625 13.0352C72.5625 13.3021 72.4388 13.7904 72.1914 14.5C71.944 15.2031 71.6152 15.8672 71.2051 16.4922C70.7949 17.1172 70.4238 17.446 70.0918 17.4785C69.7663 17.5176 69.3919 17.5371 68.9688 17.5371C67.875 17.5371 66.2832 17.332 64.1934 16.9219C62.1035 16.5117 60.541 16.1178 59.5059 15.7402ZM89.584 10.5938C91.0423 10.6198 91.791 10.6328 91.8301 10.6328C92.084 10.6328 92.2109 10.7695 92.2109 11.043C92.2109 11.2643 92.1589 11.515 92.0547 11.7949C91.9961 11.9577 91.804 12.0586 91.4785 12.0977C91.153 12.1302 90.3424 12.1888 89.0469 12.2734C88.6432 13.5951 88.4284 14.6693 88.4023 15.4961C88.3958 15.6393 88.3796 15.8346 88.3535 16.082C88.334 16.3229 88.3242 16.515 88.3242 16.6582C88.3242 16.7949 88.2266 16.9219 88.0312 17.0391C87.8424 17.1562 87.6309 17.2148 87.3965 17.2148L83.5098 17.2734C82.8262 17.2734 82.4844 16.9935 82.4844 16.4336C82.4844 15.457 82.901 14.1842 83.7344 12.6152C81.1888 12.765 79.4408 12.8398 78.4902 12.8398C77.5462 12.8398 76.944 12.7878 76.6836 12.6836C76.4232 12.5729 76.1172 12.3451 75.7656 12C75.4141 11.6549 75.2383 11.3652 75.2383 11.1309C75.2383 11.0592 75.2839 10.9648 75.375 10.8477C75.4661 10.724 75.7298 10.4049 76.166 9.89062C76.6087 9.36979 77.0156 8.86849 77.3867 8.38672C77.7643 7.89844 78.1777 7.32552 78.627 6.66797C79.5905 5.24219 80.2806 3.72852 80.6973 2.12695C80.8014 1.73633 80.9447 1.46615 81.127 1.31641C81.3158 1.16667 81.5957 1.0918 81.9668 1.0918L87.3574 0.935547C87.8262 0.935547 88.0605 1.10482 88.0605 1.44336C88.0605 1.59961 88.0085 1.79167 87.9043 2.01953C87.8587 2.11719 87.1816 2.80404 85.873 4.08008C82.0124 7.83008 80.082 9.85156 80.082 10.1445C80.082 10.431 81.3483 10.5742 83.8809 10.5742C84.2194 10.5742 84.5547 10.5742 84.8867 10.5742C85.0169 10.3529 85.1927 10.0599 85.4141 9.69531C85.6354 9.33073 85.8079 9.04427 85.9316 8.83594C86.0553 8.6276 86.1888 8.39648 86.332 8.14258C86.6055 7.6543 86.7682 7.29622 86.8203 7.06836C86.918 6.63216 87.1979 6.41406 87.6602 6.41406L89.2324 6.43359C89.6686 6.43359 89.9746 6.52148 90.1504 6.69727C90.3262 6.86654 90.4141 7.17253 90.4141 7.61523C90.4141 8.05143 90.1374 9.04427 89.584 10.5938ZM93.7637 16.2383C93.6009 16.1602 93.5195 15.9974 93.5195 15.75C93.5195 15.5026 93.7181 14.9753 94.1152 14.168C94.5124 13.3542 94.8249 12.9473 95.0527 12.9473C95.1829 12.9473 95.3848 13.0384 95.6582 13.2207C95.9316 13.3965 96.2474 13.6113 96.6055 13.8652C96.9701 14.1191 97.3639 14.3698 97.7871 14.6172C98.8158 15.2292 99.8151 15.5352 100.785 15.5352C101.267 15.5352 101.612 15.4375 101.82 15.2422C102.029 15.0469 102.133 14.8516 102.133 14.6562C102.133 14.4544 102.022 14.2298 101.801 13.9824C101.579 13.7285 101.29 13.4681 100.932 13.2012C100.58 12.9342 100.189 12.6543 99.7598 12.3613C99.3301 12.0618 98.9004 11.7461 98.4707 11.4141C98.041 11.082 97.6504 10.75 97.2988 10.418C96.498 9.66276 96.0977 8.92708 96.0977 8.21094C96.0977 7.70312 96.2311 7.24414 96.498 6.83398C96.7715 6.42383 97.1165 6.0918 97.5332 5.83789C97.9564 5.58398 98.4349 5.3724 98.9688 5.20312C99.9258 4.89062 100.912 4.73438 101.928 4.73438C102.208 4.73438 102.416 4.77669 102.553 4.86133C102.689 4.94596 102.758 5.04362 102.758 5.1543C102.758 5.26497 102.709 5.43424 102.611 5.66211C102.514 5.88346 102.465 6.08203 102.465 6.25781C102.465 6.43359 102.582 6.6582 102.816 6.93164C103.057 7.20508 103.367 7.48503 103.744 7.77148C104.122 8.05794 104.538 8.36393 104.994 8.68945C105.45 9.01497 105.906 9.36003 106.361 9.72461C106.817 10.0892 107.234 10.4603 107.611 10.8379C108.464 11.6908 108.891 12.5176 108.891 13.3184C108.891 14.1126 108.682 14.7767 108.266 15.3105C107.855 15.8444 107.283 16.2578 106.547 16.5508C105.811 16.8438 105.004 17.0553 104.125 17.1855C103.246 17.3223 102.175 17.3906 100.912 17.3906C99.6491 17.3906 98.2559 17.2604 96.7324 17C95.2155 16.7331 94.2259 16.4792 93.7637 16.2383ZM109.936 6.67773C109.083 5.66211 108.025 4.9069 106.762 4.41211C105.505 3.91081 104.193 3.66016 102.826 3.66016C100.32 3.66016 97.9043 4.13216 95.5801 5.07617C95.2676 5.19987 95.0462 5.26172 94.916 5.26172C94.6556 5.26172 94.5254 5.13802 94.5254 4.89062C94.5254 4.6888 94.6979 4.44792 95.043 4.16797C95.3945 3.88802 95.8958 3.60156 96.5469 3.30859C97.2044 3.00911 97.9466 2.73242 98.7734 2.47852C100.661 1.89909 102.686 1.60938 104.848 1.60938C108.044 1.60938 110.456 2.05859 112.084 2.95703C112.175 3.00911 112.214 3.16536 112.201 3.42578C112.195 3.67969 112.077 4.07357 111.85 4.60742C111.622 5.14128 111.345 5.63607 111.02 6.0918C110.701 6.54753 110.427 6.77539 110.199 6.77539C110.141 6.71029 110.053 6.67773 109.936 6.67773ZM118.637 14.9102C119.861 14.9102 120.883 13.9727 121.703 12.0977C122.081 11.2383 122.27 10.5417 122.27 10.0078C122.27 9.47396 122.178 9.10612 121.996 8.9043C121.82 8.70247 121.469 8.60156 120.941 8.60156C120.421 8.60156 119.854 8.8457 119.242 9.33398C118.637 9.81576 118.148 10.4245 117.777 11.1602C117.406 11.8958 117.221 12.5599 117.221 13.1523C117.221 13.7383 117.351 14.1777 117.611 14.4707C117.872 14.7637 118.214 14.9102 118.637 14.9102ZM123.715 6.63867L128.188 6.84375C128.357 6.84375 128.484 6.89583 128.568 7C128.653 7.09766 128.695 7.20833 128.695 7.33203C128.695 7.80729 128.497 8.56576 128.1 9.60742C127.709 10.6426 127.315 11.6712 126.918 12.6934C126.527 13.709 126.332 14.3828 126.332 14.7148C126.332 15.0404 126.381 15.2487 126.479 15.3398C126.583 15.431 126.778 15.4766 127.064 15.4766C127.351 15.4766 127.872 15.3398 128.627 15.0664C129.389 14.7865 129.903 14.5749 130.17 14.4316C130.443 14.2884 130.652 14.2168 130.795 14.2168C131.049 14.2168 131.176 14.3307 131.176 14.5586C131.176 15.0404 130.199 15.6719 128.246 16.4531C127.589 16.7201 126.794 16.9414 125.863 17.1172C124.939 17.2995 123.998 17.3906 123.041 17.3906C121.446 17.3906 120.486 16.8828 120.16 15.8672C119.145 16.8828 117.777 17.3906 116.059 17.3906C114.88 17.3906 113.884 17.1074 113.07 16.541C112.185 15.9225 111.742 14.9492 111.742 13.6211C111.742 12.2214 112.156 10.9323 112.982 9.75391C113.887 8.44531 115.098 7.54362 116.615 7.04883C117.455 6.77539 118.357 6.63867 119.32 6.63867C120.798 6.63867 121.947 7.00326 122.768 7.73242C122.774 7.69336 122.777 7.63151 122.777 7.54688L122.768 7.12695C122.768 6.80143 123.083 6.63867 123.715 6.63867ZM132.826 6.95117L137.26 6.84375C137.429 6.84375 137.556 6.89583 137.641 7C137.725 7.09766 137.768 7.21159 137.768 7.3418C137.768 7.46549 137.745 7.68359 137.699 7.99609C137.654 8.30208 137.631 8.52669 137.631 8.66992C138.829 7.31576 140.427 6.63867 142.426 6.63867C143.643 6.63867 144.6 6.95117 145.297 7.57617C146 8.19466 146.352 9.07357 146.352 10.2129C146.352 12.4264 145.482 14.2363 143.744 15.6426C145.762 15.4993 147.312 15.125 148.393 14.5195C148.751 14.3177 149.014 14.2168 149.184 14.2168C149.405 14.2168 149.516 14.3372 149.516 14.5781C149.516 14.7474 149.395 14.9199 149.154 15.0957C148.048 15.8704 146.622 16.4434 144.877 16.8145C143.139 17.1855 141.267 17.3711 139.262 17.3711C139.014 17.3841 138.829 17.3906 138.705 17.3906C138.015 17.3906 137.325 17.2865 136.635 17.0781C135.945 16.8698 135.372 16.5768 134.916 16.1992C134.467 17.5729 134.242 19.1582 134.242 20.9551L134.252 21.2383C134.252 21.5638 133.936 21.7266 133.305 21.7266L128.764 21.8438C128.607 21.8438 128.484 21.7949 128.393 21.6973C128.301 21.6061 128.256 21.502 128.256 21.3848C128.256 20.2715 128.865 18.1133 130.082 14.9102C131.299 11.7005 131.908 9.55208 131.908 8.46484L131.869 7.6543C131.869 7.41341 131.928 7.23763 132.045 7.12695C132.169 7.00977 132.429 6.95117 132.826 6.95117ZM139.545 9.11914C138.321 9.11914 137.299 10.0566 136.479 11.9316C136.101 12.791 135.912 13.4876 135.912 14.0215C135.912 14.5553 136 14.9232 136.176 15.125C136.358 15.3268 136.71 15.4277 137.23 15.4277C137.758 15.4277 138.324 15.1868 138.93 14.7051C139.542 14.2168 140.033 13.6048 140.404 12.8691C140.775 12.1335 140.961 11.4727 140.961 10.8867C140.961 10.2943 140.831 9.85156 140.57 9.55859C140.31 9.26562 139.968 9.11914 139.545 9.11914ZM151.166 6.95117L155.6 6.84375C155.769 6.84375 155.896 6.89583 155.98 7C156.065 7.09766 156.107 7.21159 156.107 7.3418C156.107 7.46549 156.085 7.68359 156.039 7.99609C155.993 8.30208 155.971 8.52669 155.971 8.66992C157.169 7.31576 158.767 6.63867 160.766 6.63867C161.983 6.63867 162.94 6.95117 163.637 7.57617C164.34 8.19466 164.691 9.07357 164.691 10.2129C164.691 12.4264 163.822 14.2363 162.084 15.6426C164.102 15.4993 165.652 15.125 166.732 14.5195C167.09 14.3177 167.354 14.2168 167.523 14.2168C167.745 14.2168 167.855 14.3372 167.855 14.5781C167.855 14.7474 167.735 14.9199 167.494 15.0957C166.387 15.8704 164.962 16.4434 163.217 16.8145C161.479 17.1855 159.607 17.3711 157.602 17.3711C157.354 17.3841 157.169 17.3906 157.045 17.3906C156.355 17.3906 155.665 17.2865 154.975 17.0781C154.285 16.8698 153.712 16.5768 153.256 16.1992C152.807 17.5729 152.582 19.1582 152.582 20.9551L152.592 21.2383C152.592 21.5638 152.276 21.7266 151.645 21.7266L147.104 21.8438C146.947 21.8438 146.824 21.7949 146.732 21.6973C146.641 21.6061 146.596 21.502 146.596 21.3848C146.596 20.2715 147.204 18.1133 148.422 14.9102C149.639 11.7005 150.248 9.55208 150.248 8.46484L150.209 7.6543C150.209 7.41341 150.268 7.23763 150.385 7.12695C150.508 7.00977 150.769 6.95117 151.166 6.95117ZM157.885 9.11914C156.661 9.11914 155.639 10.0566 154.818 11.9316C154.441 12.791 154.252 13.4876 154.252 14.0215C154.252 14.5553 154.34 14.9232 154.516 15.125C154.698 15.3268 155.049 15.4277 155.57 15.4277C156.098 15.4277 156.664 15.1868 157.27 14.7051C157.882 14.2168 158.373 13.6048 158.744 12.8691C159.115 12.1335 159.301 11.4727 159.301 10.8867C159.301 10.2943 159.171 9.85156 158.91 9.55859C158.65 9.26562 158.308 9.11914 157.885 9.11914ZM168.422 16.3457C167.198 15.61 166.586 14.4935 166.586 12.9961C166.586 12.2148 166.745 11.4824 167.064 10.7988C167.39 10.1087 167.833 9.51302 168.393 9.01172C168.959 8.51042 169.617 8.08073 170.365 7.72266C171.863 7 173.578 6.63867 175.512 6.63867C179.314 6.63867 181.368 7.8431 181.674 10.252C182.13 10.4017 182.598 10.4766 183.08 10.4766C183.568 10.4766 183.975 10.4408 184.301 10.3691C184.626 10.2975 184.932 10.1901 185.219 10.0469C185.512 9.90365 185.72 9.83203 185.844 9.83203C186.091 9.83203 186.215 9.95247 186.215 10.1934C186.215 10.4342 186.023 10.6849 185.639 10.9453C184.916 11.4401 183.959 11.6875 182.768 11.6875C182.318 11.6875 181.954 11.6647 181.674 11.6191C181.465 13.2598 180.619 14.6237 179.135 15.7109C178.425 16.2318 177.553 16.6419 176.518 16.9414C175.489 17.2409 174.421 17.3906 173.314 17.3906C172.214 17.3906 171.27 17.3027 170.482 17.127C169.695 16.9577 169.008 16.6973 168.422 16.3457ZM171.967 13.8555C171.967 15.0599 172.406 15.6621 173.285 15.6621C173.845 15.6621 174.366 15.3561 174.848 14.7441C175.336 14.1322 175.714 13.3737 175.98 12.4688C176.254 11.5638 176.391 10.6426 176.391 9.70508C176.391 8.76107 176.062 8.28906 175.404 8.28906C174.831 8.28906 174.275 8.55924 173.734 9.09961C173.201 9.63997 172.771 10.3431 172.445 11.209C172.126 12.0684 171.967 12.9505 171.967 13.8555ZM186.4 6.95117L191.029 6.84375C191.199 6.84375 191.326 6.89583 191.41 7C191.495 7.09766 191.537 7.1888 191.537 7.27344C191.537 7.35807 191.514 7.49805 191.469 7.69336C191.423 7.88867 191.365 8.1263 191.293 8.40625C191.221 8.67969 191.176 8.85547 191.156 8.93359C191.664 8.32812 192.299 7.79427 193.061 7.33203C193.822 6.86979 194.493 6.63867 195.072 6.63867C196.303 6.63867 196.918 6.9056 196.918 7.43945C196.918 7.9668 196.752 8.60156 196.42 9.34375C196.088 10.0794 195.775 10.5645 195.482 10.7988C195.339 10.903 195.163 10.9551 194.955 10.9551C194.753 10.9551 194.564 10.89 194.389 10.7598C193.601 10.1738 192.742 9.88086 191.811 9.88086C191.452 9.88086 191.14 9.9069 190.873 9.95898C190.619 10.8314 190.215 12.1139 189.662 13.8066C189.109 15.4928 188.803 16.4336 188.744 16.6289C188.646 16.9349 188.464 17.0879 188.197 17.0879C187.253 17.0879 186.241 17.1367 185.16 17.2344C184.079 17.3385 183.458 17.3906 183.295 17.3906C183.139 17.3906 183.015 17.3451 182.924 17.2539C182.839 17.1693 182.797 17.0684 182.797 16.9512C182.797 16.8275 182.934 16.3913 183.207 15.6426C183.487 14.8874 183.793 14.0768 184.125 13.2109C184.464 12.3451 184.77 11.3945 185.043 10.3594C185.323 9.32422 185.463 8.47461 185.463 7.81055L185.453 7.43945C185.453 7.11393 185.769 6.95117 186.4 6.95117ZM198.441 16.3457C197.217 15.61 196.605 14.4935 196.605 12.9961C196.605 12.2148 196.765 11.4824 197.084 10.7988C197.41 10.1087 197.852 9.51302 198.412 9.01172C198.979 8.51042 199.636 8.08073 200.385 7.72266C201.882 7 203.598 6.63867 205.531 6.63867C209.333 6.63867 211.387 7.8431 211.693 10.252C212.149 10.4017 212.618 10.4766 213.1 10.4766C213.588 10.4766 213.995 10.4408 214.32 10.3691C214.646 10.2975 214.952 10.1901 215.238 10.0469C215.531 9.90365 215.74 9.83203 215.863 9.83203C216.111 9.83203 216.234 9.95247 216.234 10.1934C216.234 10.4342 216.042 10.6849 215.658 10.9453C214.936 11.4401 213.979 11.6875 212.787 11.6875C212.338 11.6875 211.973 11.6647 211.693 11.6191C211.485 13.2598 210.639 14.6237 209.154 15.7109C208.445 16.2318 207.572 16.6419 206.537 16.9414C205.508 17.2409 204.441 17.3906 203.334 17.3906C202.234 17.3906 201.29 17.3027 200.502 17.127C199.714 16.9577 199.027 16.6973 198.441 16.3457ZM201.986 13.8555C201.986 15.0599 202.426 15.6621 203.305 15.6621C203.865 15.6621 204.385 15.3561 204.867 14.7441C205.355 14.1322 205.733 13.3737 206 12.4688C206.273 11.5638 206.41 10.6426 206.41 9.70508C206.41 8.76107 206.081 8.28906 205.424 8.28906C204.851 8.28906 204.294 8.55924 203.754 9.09961C203.22 9.63997 202.79 10.3431 202.465 11.209C202.146 12.0684 201.986 12.9505 201.986 13.8555ZM215.551 12.3613C215.219 12.3613 215.053 12.1693 215.053 11.7852C215.053 11.2122 215.105 10.8477 215.209 10.6914C215.417 10.3984 215.684 10.2357 216.01 10.2031C216.342 10.1641 216.762 10.1445 217.27 10.1445L221.352 10.2324L224.809 10.1348C225.141 10.1348 225.307 10.3268 225.307 10.7109C225.307 11.2839 225.255 11.6484 225.15 11.8047C224.942 12.0977 224.672 12.2637 224.34 12.3027C224.014 12.3353 223.598 12.3516 223.09 12.3516L219.008 12.2637L215.551 12.3613ZM230.863 6.95117L235.492 6.84375C235.661 6.84375 235.788 6.89583 235.873 7C235.958 7.09766 236 7.22135 236 7.37109C236 7.51432 235.964 7.7487 235.893 8.07422C237.631 7.11719 239.145 6.63867 240.434 6.63867C240.993 6.63867 241.511 6.77865 241.986 7.05859C242.468 7.33854 242.781 7.75195 242.924 8.29883C245.046 7.19206 246.804 6.63867 248.197 6.63867C248.809 6.63867 249.35 6.8112 249.818 7.15625C250.32 7.53385 250.57 8.06771 250.57 8.75781C250.57 9.44141 250.45 10.1641 250.209 10.9258C249.975 11.681 249.737 12.3874 249.496 13.0449C249.262 13.7025 249.145 14.168 249.145 14.4414C249.145 14.7083 249.213 14.9102 249.35 15.0469C249.486 15.1836 249.669 15.252 249.896 15.252C250.736 15.252 251.778 14.959 253.021 14.373C253.256 14.2689 253.435 14.2168 253.559 14.2168C253.852 14.2168 253.998 14.334 253.998 14.5684C253.998 14.7767 253.871 14.9753 253.617 15.1641C253.37 15.3464 253.008 15.5482 252.533 15.7695C252.058 15.9909 251.469 16.2285 250.766 16.4824C250.069 16.7363 249.249 16.9512 248.305 17.127C247.361 17.3027 246.518 17.3906 245.775 17.3906C245.04 17.3906 244.49 17.2669 244.125 17.0195C243.76 16.7721 243.578 16.4531 243.578 16.0625C243.578 15.6719 243.702 15.0859 243.949 14.3047C244.203 13.5234 244.457 12.752 244.711 11.9902C244.965 11.222 245.092 10.6654 245.092 10.3203C245.092 9.96875 245.007 9.7181 244.838 9.56836C244.669 9.41211 244.415 9.33398 244.076 9.33398C243.744 9.33398 243.376 9.38607 242.973 9.49023C242.868 10.6035 242.436 12.2995 241.674 14.5781C241.355 15.5352 241.176 16.1341 241.137 16.375C241.098 16.6159 241.072 16.7559 241.059 16.7949C241.046 16.8275 241.023 16.873 240.99 16.9316C240.932 17.0358 240.808 17.0879 240.619 17.0879C239.682 17.0879 238.754 17.1042 237.836 17.1367C236.924 17.1758 236.335 17.1953 236.068 17.1953C235.808 17.1953 235.678 17.0423 235.678 16.7363C235.678 16.4303 235.779 15.9746 235.98 15.3691C236.182 14.7637 236.407 14.1615 236.654 13.5625C237.299 11.974 237.621 10.7891 237.621 10.0078C237.621 9.42839 237.243 9.13867 236.488 9.13867C236.169 9.13867 235.867 9.19076 235.58 9.29492C235.326 10.1608 234.887 11.5312 234.262 13.4062C233.643 15.2812 233.295 16.3359 233.217 16.5703C233.113 16.9154 232.927 17.0879 232.66 17.0879L227.641 17.1953C227.569 17.1953 227.488 17.1497 227.396 17.0586C227.312 16.974 227.27 16.873 227.27 16.7559C227.27 16.6322 227.406 16.2057 227.68 15.4766C227.96 14.7409 228.266 13.9531 228.598 13.1133C228.93 12.2669 229.232 11.3392 229.506 10.3301C229.786 9.31445 229.926 8.47461 229.926 7.81055L229.916 7.43945C229.916 7.11393 230.232 6.95117 230.863 6.95117ZM262.182 3.23047C262.182 3.92708 261.794 4.53581 261.02 5.05664C260.251 5.57096 259.438 5.82812 258.578 5.82812C257.725 5.82812 257.061 5.6556 256.586 5.31055C256.111 4.95898 255.873 4.53255 255.873 4.03125C255.873 3.52995 256.055 3.07422 256.42 2.66406C256.785 2.25391 257.257 1.93164 257.836 1.69727C258.422 1.46289 259.057 1.3457 259.74 1.3457C260.424 1.3457 261 1.52799 261.469 1.89258C261.944 2.25065 262.182 2.69661 262.182 3.23047ZM259.438 15.3496C259.88 15.3496 260.479 15.2454 261.234 15.0371C261.996 14.8223 262.549 14.6335 262.895 14.4707C263.24 14.3014 263.48 14.2168 263.617 14.2168C263.891 14.2168 264.027 14.3535 264.027 14.627C264.027 14.7507 263.926 14.8906 263.725 15.0469C263.061 15.5417 261.866 16.056 260.141 16.5898C258.415 17.1237 256.876 17.3906 255.521 17.3906C254.682 17.3906 253.979 17.2572 253.412 16.9902C252.846 16.7233 252.562 16.3164 252.562 15.7695C252.562 15.4375 252.846 14.6237 253.412 13.3281C254.48 10.8737 255.014 9.02474 255.014 7.78125L255.004 7.41016C255.004 7.08464 255.32 6.92188 255.951 6.92188L260.775 6.81445C260.945 6.81445 261.072 6.86654 261.156 6.9707C261.241 7.06836 261.283 7.17904 261.283 7.30273C261.283 7.75195 261.078 8.49414 260.668 9.5293C260.258 10.5579 259.848 11.5703 259.438 12.5664C259.027 13.5625 258.822 14.2754 258.822 14.7051C258.822 15.1348 259.027 15.3496 259.438 15.3496ZM265.893 6.95117L270.521 6.84375C270.691 6.84375 270.818 6.89583 270.902 7C270.987 7.09766 271.029 7.1888 271.029 7.27344C271.029 7.35807 271.007 7.49805 270.961 7.69336C270.915 7.88867 270.857 8.1263 270.785 8.40625C270.714 8.67969 270.668 8.85547 270.648 8.93359C271.156 8.32812 271.791 7.79427 272.553 7.33203C273.314 6.86979 273.985 6.63867 274.564 6.63867C275.795 6.63867 276.41 6.9056 276.41 7.43945C276.41 7.9668 276.244 8.60156 275.912 9.34375C275.58 10.0794 275.268 10.5645 274.975 10.7988C274.831 10.903 274.656 10.9551 274.447 10.9551C274.245 10.9551 274.057 10.89 273.881 10.7598C273.093 10.1738 272.234 9.88086 271.303 9.88086C270.945 9.88086 270.632 9.9069 270.365 9.95898C270.111 10.8314 269.708 12.1139 269.154 13.8066C268.601 15.4928 268.295 16.4336 268.236 16.6289C268.139 16.9349 267.956 17.0879 267.689 17.0879C266.745 17.0879 265.733 17.1367 264.652 17.2344C263.572 17.3385 262.95 17.3906 262.787 17.3906C262.631 17.3906 262.507 17.3451 262.416 17.2539C262.331 17.1693 262.289 17.0684 262.289 16.9512C262.289 16.8275 262.426 16.3913 262.699 15.6426C262.979 14.8874 263.285 14.0768 263.617 13.2109C263.956 12.3451 264.262 11.3945 264.535 10.3594C264.815 9.32422 264.955 8.47461 264.955 7.81055L264.945 7.43945C264.945 7.11393 265.261 6.95117 265.893 6.95117ZM283.168 14.9102C284.392 14.9102 285.414 13.9727 286.234 12.0977C286.612 11.2383 286.801 10.5417 286.801 10.0078C286.801 9.47396 286.71 9.10612 286.527 8.9043C286.352 8.70247 286 8.60156 285.473 8.60156C284.952 8.60156 284.385 8.8457 283.773 9.33398C283.168 9.81576 282.68 10.4245 282.309 11.1602C281.938 11.8958 281.752 12.5599 281.752 13.1523C281.752 13.7383 281.882 14.1777 282.143 14.4707C282.403 14.7637 282.745 14.9102 283.168 14.9102ZM288.246 6.63867L292.719 6.84375C292.888 6.84375 293.015 6.89583 293.1 7C293.184 7.09766 293.227 7.20833 293.227 7.33203C293.227 7.80729 293.028 8.56576 292.631 9.60742C292.24 10.6426 291.846 11.6712 291.449 12.6934C291.059 13.709 290.863 14.3828 290.863 14.7148C290.863 15.0404 290.912 15.2487 291.01 15.3398C291.114 15.431 291.309 15.4766 291.596 15.4766C291.882 15.4766 292.403 15.3398 293.158 15.0664C293.92 14.7865 294.434 14.5749 294.701 14.4316C294.975 14.2884 295.183 14.2168 295.326 14.2168C295.58 14.2168 295.707 14.3307 295.707 14.5586C295.707 15.0404 294.73 15.6719 292.777 16.4531C292.12 16.7201 291.326 16.9414 290.395 17.1172C289.47 17.2995 288.529 17.3906 287.572 17.3906C285.977 17.3906 285.017 16.8828 284.691 15.8672C283.676 16.8828 282.309 17.3906 280.59 17.3906C279.411 17.3906 278.415 17.1074 277.602 16.541C276.716 15.9225 276.273 14.9492 276.273 13.6211C276.273 12.2214 276.687 10.9323 277.514 9.75391C278.419 8.44531 279.63 7.54362 281.146 7.04883C281.986 6.77539 282.888 6.63867 283.852 6.63867C285.329 6.63867 286.479 7.00326 287.299 7.73242C287.305 7.69336 287.309 7.63151 287.309 7.54688L287.299 7.12695C287.299 6.80143 287.615 6.63867 288.246 6.63867ZM303.9 3.23047C303.9 3.92708 303.513 4.53581 302.738 5.05664C301.97 5.57096 301.156 5.82812 300.297 5.82812C299.444 5.82812 298.78 5.6556 298.305 5.31055C297.829 4.95898 297.592 4.53255 297.592 4.03125C297.592 3.52995 297.774 3.07422 298.139 2.66406C298.503 2.25391 298.975 1.93164 299.555 1.69727C300.141 1.46289 300.775 1.3457 301.459 1.3457C302.143 1.3457 302.719 1.52799 303.188 1.89258C303.663 2.25065 303.9 2.69661 303.9 3.23047ZM301.156 15.3496C301.599 15.3496 302.198 15.2454 302.953 15.0371C303.715 14.8223 304.268 14.6335 304.613 14.4707C304.958 14.3014 305.199 14.2168 305.336 14.2168C305.609 14.2168 305.746 14.3535 305.746 14.627C305.746 14.7507 305.645 14.8906 305.443 15.0469C304.779 15.5417 303.585 16.056 301.859 16.5898C300.134 17.1237 298.594 17.3906 297.24 17.3906C296.4 17.3906 295.697 17.2572 295.131 16.9902C294.564 16.7233 294.281 16.3164 294.281 15.7695C294.281 15.4375 294.564 14.6237 295.131 13.3281C296.199 10.8737 296.732 9.02474 296.732 7.78125L296.723 7.41016C296.723 7.08464 297.038 6.92188 297.67 6.92188L302.494 6.81445C302.663 6.81445 302.79 6.86654 302.875 6.9707C302.96 7.06836 303.002 7.17904 303.002 7.30273C303.002 7.75195 302.797 8.49414 302.387 9.5293C301.977 10.5579 301.566 11.5703 301.156 12.5664C300.746 13.5625 300.541 14.2754 300.541 14.7051C300.541 15.1348 300.746 15.3496 301.156 15.3496ZM312.006 16.1699C311.628 16.5931 311.13 16.9284 310.512 17.1758C309.9 17.4232 309.229 17.5469 308.5 17.5469C307.777 17.5469 307.165 17.3613 306.664 16.9902C306.163 16.6191 305.912 16.1699 305.912 15.6426C305.912 15.1152 306.104 14.6367 306.488 14.207C306.879 13.7708 307.38 13.429 307.992 13.1816C308.604 12.9342 309.271 12.8105 309.994 12.8105C310.723 12.8105 311.335 13.0026 311.83 13.3867C312.331 13.7643 312.582 14.2168 312.582 14.7441C312.582 15.265 312.39 15.7402 312.006 16.1699ZM327.113 17.3906C324.945 17.3906 323.861 16.6712 323.861 15.2324C323.861 14.4121 324.379 12.7747 325.414 10.3203C326.449 7.85938 326.967 6.15365 326.967 5.20312C326.967 4.66927 326.768 4.29167 326.371 4.07031C325.98 3.84245 325.411 3.72852 324.662 3.72852C323.92 3.72852 323.165 3.79362 322.396 3.92383C321.628 4.05404 321.133 4.11914 320.912 4.11914C320.697 4.11914 320.59 4.02148 320.59 3.82617C320.59 3.57227 321.049 3.23698 321.967 2.82031C323.731 2.01302 325.674 1.60938 327.797 1.60938C329.477 1.60938 330.733 1.91211 331.566 2.51758C332.406 3.12305 332.826 4.10612 332.826 5.4668C332.826 6.27409 332.683 7.28646 332.396 8.50391C332.11 9.71484 331.824 10.8542 331.537 11.9219C331.257 12.9896 331.117 13.722 331.117 14.1191C331.117 14.5163 331.192 14.793 331.342 14.9492C331.531 15.1445 331.895 15.2422 332.436 15.2422C332.768 15.2422 332.953 15.278 332.992 15.3496C333.038 15.4212 333.061 15.4961 333.061 15.5742C333.061 15.8737 332.924 16.1178 332.65 16.3066C331.615 17.0293 329.77 17.3906 327.113 17.3906ZM321.43 10.3203L323.93 10.2617C324.385 10.2617 324.613 10.3952 324.613 10.6621C324.613 10.8509 324.506 11.0007 324.291 11.1113C323.536 11.4954 322.234 11.7396 320.385 11.8438C319.857 12.8854 319.594 13.8001 319.594 14.5879C319.594 14.9395 319.639 15.265 319.73 15.5645C319.822 15.8574 319.867 16.069 319.867 16.1992C319.867 16.5443 319.649 16.7786 319.213 16.9023C318.777 17.0195 318.135 17.0781 317.289 17.0781C316.449 17.0781 315.896 17.0033 315.629 16.8535C315.362 16.6973 315.229 16.4238 315.229 16.0332C315.229 15.304 315.44 14.5 315.863 13.6211C316.293 12.7422 316.84 11.9023 317.504 11.1016C318.168 10.2943 318.904 9.50326 319.711 8.72852C320.518 7.95378 321.303 7.28646 322.064 6.72656C323.757 5.47005 324.91 4.8418 325.521 4.8418C325.801 4.8418 325.941 4.92643 325.941 5.0957C325.941 5.26497 325.805 5.45378 325.531 5.66211C324.952 6.08529 324.258 6.72982 323.451 7.5957C322.644 8.46159 321.924 9.36979 321.293 10.3203H321.43ZM339.115 2.61523L343.9 2.50781C344.07 2.50781 344.197 2.5599 344.281 2.66406C344.366 2.76172 344.408 2.8724 344.408 2.99609C344.408 3.67969 343.783 5.65234 342.533 8.91406C341.29 12.1758 340.668 14.0964 340.668 14.6758C340.668 14.9167 340.717 15.099 340.814 15.2227C340.912 15.3398 341.085 15.3984 341.332 15.3984C342.107 15.3984 343.308 15.0404 344.936 14.3242C345.098 14.2526 345.255 14.2168 345.404 14.2168C345.671 14.2168 345.805 14.321 345.805 14.5293C345.805 14.7051 345.671 14.8874 345.404 15.0762C345.137 15.265 344.77 15.4733 344.301 15.7012C343.832 15.929 343.262 16.1764 342.592 16.4434C341.921 16.7103 341.16 16.9349 340.307 17.1172C339.46 17.2995 338.572 17.3906 337.641 17.3906C336.71 17.3906 335.964 17.2637 335.404 17.0098C334.844 16.7624 334.564 16.3034 334.564 15.6328C334.564 15.1641 335.167 13.3249 336.371 10.1152C336.82 8.91732 337.234 7.67383 337.611 6.38477C337.989 5.08919 338.178 4.11914 338.178 3.47461L338.168 3.10352C338.168 2.77799 338.484 2.61523 339.115 2.61523ZM349.115 2.61523L353.9 2.50781C354.07 2.50781 354.197 2.5599 354.281 2.66406C354.366 2.76172 354.408 2.8724 354.408 2.99609C354.408 3.67969 353.783 5.65234 352.533 8.91406C351.29 12.1758 350.668 14.0964 350.668 14.6758C350.668 14.9167 350.717 15.099 350.814 15.2227C350.912 15.3398 351.085 15.3984 351.332 15.3984C352.107 15.3984 353.308 15.0404 354.936 14.3242C355.098 14.2526 355.255 14.2168 355.404 14.2168C355.671 14.2168 355.805 14.321 355.805 14.5293C355.805 14.7051 355.671 14.8874 355.404 15.0762C355.137 15.265 354.77 15.4733 354.301 15.7012C353.832 15.929 353.262 16.1764 352.592 16.4434C351.921 16.7103 351.16 16.9349 350.307 17.1172C349.46 17.2995 348.572 17.3906 347.641 17.3906C346.71 17.3906 345.964 17.2637 345.404 17.0098C344.844 16.7624 344.564 16.3034 344.564 15.6328C344.564 15.1641 345.167 13.3249 346.371 10.1152C346.82 8.91732 347.234 7.67383 347.611 6.38477C347.989 5.08919 348.178 4.11914 348.178 3.47461L348.168 3.10352C348.168 2.77799 348.484 2.61523 349.115 2.61523ZM371.156 10.9062L370.678 10.916C370.248 12.166 369.896 13.25 369.623 14.168C369.35 15.0794 369.128 15.6751 368.959 15.9551C368.796 16.2285 368.617 16.4499 368.422 16.6191C368.233 16.7819 367.989 16.9056 367.689 16.9902C367.195 17.127 366.524 17.1953 365.678 17.1953C364.831 17.1953 364.018 17.1009 363.236 16.9121C362.462 16.7233 361.843 16.4922 361.381 16.2188C360.919 15.9388 360.688 15.6686 360.688 15.4082C360.688 15.2585 360.753 15.1413 360.883 15.0566C361.007 14.9655 361.153 14.9199 361.322 14.9199C361.921 14.9199 362.361 14.8255 362.641 14.6367C362.927 14.4414 363.197 14.0866 363.451 13.5723C363.705 13.0579 363.956 12.4622 364.203 11.7852C364.457 11.1081 364.691 10.4798 364.906 9.90039C365.128 9.32096 365.382 8.72852 365.668 8.12305C366.28 6.82096 367.038 5.95182 367.943 5.51562C368.38 5.30729 368.959 5.14779 369.682 5.03711C370.404 4.91992 370.967 4.86133 371.371 4.86133C371.775 4.86133 372.038 4.86784 372.162 4.88086C372.286 4.88737 372.41 4.9069 372.533 4.93945C372.787 5.00456 372.914 5.14779 372.914 5.36914C372.914 5.50586 372.888 5.63281 372.836 5.75C372.784 5.86719 372.624 6.15039 372.357 6.59961C372.097 7.04232 371.648 8.16211 371.01 9.95898C374.467 9.55534 376.195 8.29232 376.195 6.16992C376.195 5.45378 375.971 4.91667 375.521 4.55859C375.059 4.20052 374.59 3.98242 374.115 3.9043C373.406 3.78711 372.624 3.72852 371.771 3.72852C370.925 3.72852 370.04 3.8099 369.115 3.97266C368.191 4.12891 367.471 4.30469 366.957 4.5C366.449 4.6888 365.993 4.86458 365.59 5.02734C365.193 5.18359 364.939 5.26172 364.828 5.26172C364.483 5.26172 364.311 5.14779 364.311 4.91992C364.311 4.63346 364.496 4.37305 364.867 4.13867C366.156 3.31185 367.631 2.68359 369.291 2.25391C370.951 1.82422 373.031 1.60938 375.531 1.60938C376.814 1.60938 377.885 1.74284 378.744 2.00977C379.604 2.27018 380.261 2.54688 380.717 2.83984C381.179 3.1263 381.557 3.50716 381.85 3.98242C382.143 4.45768 382.289 4.97852 382.289 5.54492C382.289 6.11133 382.182 6.61263 381.967 7.04883C381.752 7.47852 381.456 7.84961 381.078 8.16211C380.707 8.4681 380.235 8.74479 379.662 8.99219C378.673 9.41536 377.335 9.76042 375.648 10.0273C376.938 10.0273 377.956 10.2487 378.705 10.6914C379.454 11.1341 379.828 11.7591 379.828 12.5664L379.652 14.3047C379.652 14.7734 379.89 15.0404 380.365 15.1055C380.567 15.138 380.769 15.1641 380.971 15.1836C381.446 15.2227 381.684 15.4049 381.684 15.7305C381.684 16.1732 381.13 16.5605 380.023 16.8926C378.923 17.2246 377.715 17.3906 376.4 17.3906C373.92 17.3906 372.68 16.6647 372.68 15.2129C372.68 14.8613 372.787 14.36 373.002 13.709C373.217 13.0579 373.324 12.6217 373.324 12.4004C373.324 11.9902 373.155 11.6387 372.816 11.3457C372.478 11.0527 371.924 10.9062 371.156 10.9062ZM393.197 3.23047C393.197 3.92708 392.81 4.53581 392.035 5.05664C391.267 5.57096 390.453 5.82812 389.594 5.82812C388.741 5.82812 388.077 5.6556 387.602 5.31055C387.126 4.95898 386.889 4.53255 386.889 4.03125C386.889 3.52995 387.071 3.07422 387.436 2.66406C387.8 2.25391 388.272 1.93164 388.852 1.69727C389.438 1.46289 390.072 1.3457 390.756 1.3457C391.439 1.3457 392.016 1.52799 392.484 1.89258C392.96 2.25065 393.197 2.69661 393.197 3.23047ZM390.453 15.3496C390.896 15.3496 391.495 15.2454 392.25 15.0371C393.012 14.8223 393.565 14.6335 393.91 14.4707C394.255 14.3014 394.496 14.2168 394.633 14.2168C394.906 14.2168 395.043 14.3535 395.043 14.627C395.043 14.7507 394.942 14.8906 394.74 15.0469C394.076 15.5417 392.882 16.056 391.156 16.5898C389.431 17.1237 387.891 17.3906 386.537 17.3906C385.697 17.3906 384.994 17.2572 384.428 16.9902C383.861 16.7233 383.578 16.3164 383.578 15.7695C383.578 15.4375 383.861 14.6237 384.428 13.3281C385.495 10.8737 386.029 9.02474 386.029 7.78125L386.02 7.41016C386.02 7.08464 386.335 6.92188 386.967 6.92188L391.791 6.81445C391.96 6.81445 392.087 6.86654 392.172 6.9707C392.257 7.06836 392.299 7.17904 392.299 7.30273C392.299 7.75195 392.094 8.49414 391.684 9.5293C391.273 10.5579 390.863 11.5703 390.453 12.5664C390.043 13.5625 389.838 14.2754 389.838 14.7051C389.838 15.1348 390.043 15.3496 390.453 15.3496ZM393.432 20.3203C393.432 19.9232 393.744 19.5391 394.369 19.168C395.001 18.7969 395.814 18.4746 396.811 18.2012C398.614 17.7064 400.492 17.3255 402.445 17.0586C402.673 16.4206 402.885 15.8118 403.08 15.2324C402.383 15.7467 401.602 16.1504 400.736 16.4434C399.87 16.7363 399.086 16.8828 398.383 16.8828C397.68 16.8828 397.087 16.8242 396.605 16.707C396.124 16.5833 395.678 16.3913 395.268 16.1309C394.389 15.571 393.949 14.6497 393.949 13.3672C393.949 12.0781 394.294 10.9193 394.984 9.89062C395.674 8.86198 396.609 8.06445 397.787 7.49805C398.972 6.92513 400.313 6.63867 401.811 6.63867C403.308 6.63867 404.467 6.96419 405.287 7.61523C405.88 7.43294 406.566 7.27344 407.348 7.13672C408.135 6.99349 408.751 6.92188 409.193 6.92188C409.643 6.92188 410.02 7.0293 410.326 7.24414C410.639 7.45898 410.795 7.70638 410.795 7.98633C410.795 8.25977 410.697 8.67643 410.502 9.23633C410.313 9.79622 409.984 10.7305 409.516 12.0391C409.047 13.3477 408.601 14.6628 408.178 15.9844C409.493 15.6263 410.893 15.0957 412.377 14.3926C412.624 14.2754 412.816 14.2168 412.953 14.2168C413.24 14.2168 413.383 14.3307 413.383 14.5586C413.383 14.7344 413.266 14.9069 413.031 15.0762C411.957 15.8835 410.202 16.6257 407.768 17.3027L407.504 18.1719C407.322 18.7839 406.99 19.3242 406.508 19.793C406.026 20.2682 405.476 20.6458 404.857 20.9258C404.239 21.2057 403.529 21.4336 402.729 21.6094C401.335 21.9219 399.763 22.0781 398.012 22.0781C394.958 22.0781 393.432 21.4922 393.432 20.3203ZM402.699 14.0215C403.207 13.6113 403.65 12.9733 404.027 12.1074C404.411 11.2415 404.604 10.5417 404.604 10.0078C404.604 9.47396 404.512 9.10612 404.33 8.9043C404.154 8.70247 403.803 8.60156 403.275 8.60156C402.755 8.60156 402.178 8.82943 401.547 9.28516C400.922 9.73438 400.411 10.3105 400.014 11.0137C399.623 11.7168 399.428 12.3613 399.428 12.9473C399.428 13.5332 399.555 13.9596 399.809 14.2266C400.069 14.487 400.355 14.6172 400.668 14.6172C400.987 14.6172 401.225 14.6074 401.381 14.5879C401.544 14.5684 401.752 14.513 402.006 14.4219C402.26 14.3242 402.491 14.1908 402.699 14.0215ZM401.586 19.4707L402.045 18.1719C399.135 18.6341 397.68 19.2949 397.68 20.1543C397.68 20.4082 397.8 20.61 398.041 20.7598C398.288 20.916 398.598 20.9941 398.969 20.9941C400.355 20.9941 401.228 20.4863 401.586 19.4707ZM416.596 2.53711L421.068 2.50781C421.218 2.50781 421.339 2.55664 421.43 2.6543C421.527 2.74544 421.576 2.89844 421.576 3.11328C421.576 3.32812 421.443 3.95964 421.176 5.00781C420.909 6.04948 420.609 7.07161 420.277 8.07422C421.13 7.70964 422.074 7.38086 423.109 7.08789C424.145 6.78841 425.076 6.63867 425.902 6.63867C426.527 6.63867 427.097 6.8112 427.611 7.15625C428.184 7.54036 428.471 8.12305 428.471 8.9043C428.471 9.67904 428.168 10.724 427.562 12.0391C426.957 13.3542 426.654 14.194 426.654 14.5586C426.654 15.0924 426.911 15.3594 427.426 15.3594C428.441 15.3594 429.59 15.0306 430.873 14.373C431.068 14.2689 431.228 14.2168 431.352 14.2168C431.618 14.2168 431.752 14.3372 431.752 14.5781C431.752 14.8125 431.602 15.0241 431.303 15.2129C431.01 15.3952 430.639 15.5938 430.189 15.8086C429.74 16.0169 429.177 16.248 428.5 16.502C426.918 17.0944 425.229 17.3906 423.432 17.3906C421.635 17.3906 420.736 16.9479 420.736 16.0625C420.736 15.4896 421.062 14.4674 421.713 12.9961C422.37 11.5182 422.699 10.5221 422.699 10.0078C422.699 9.38932 422.247 9.08008 421.342 9.08008C420.84 9.08008 420.346 9.1582 419.857 9.31445C418.783 12.4655 418.012 14.9362 417.543 16.7266C417.51 16.8503 417.436 16.9414 417.318 17C417.208 17.0586 417.11 17.0879 417.025 17.0879L411.996 17.1953C411.924 17.1953 411.843 17.1497 411.752 17.0586C411.667 16.974 411.625 16.8665 411.625 16.7363C411.625 16.6061 411.833 15.9518 412.25 14.7734C412.673 13.5951 413.135 12.3158 413.637 10.9355C414.145 9.55534 414.607 8.11979 415.023 6.62891C415.447 5.13802 415.658 4.02799 415.658 3.29883L415.648 3.02539C415.648 2.69987 415.964 2.53711 416.596 2.53711ZM439.564 7.05859L442.133 6.72656C442.615 6.72656 442.855 6.91536 442.855 7.29297C442.855 7.67057 442.628 7.9082 442.172 8.00586C441.716 8.09701 440.688 8.2207 439.086 8.37695C438.865 8.95638 438.533 9.76042 438.09 10.7891C437.185 12.8984 436.732 14.1647 436.732 14.5879C436.732 15.0501 437.019 15.2812 437.592 15.2812C439.441 15.2812 441.101 14.972 442.572 14.3535C442.787 14.2624 442.956 14.2168 443.08 14.2168C443.321 14.2168 443.441 14.3242 443.441 14.5391C443.441 14.7539 443.285 14.9655 442.973 15.1738C442.016 15.8053 440.574 16.3327 438.646 16.7559C436.719 17.179 434.942 17.3906 433.314 17.3906C432.39 17.3906 431.684 17.2474 431.195 16.9609C430.707 16.668 430.463 16.2676 430.463 15.7598C430.463 15.2454 430.801 14.2852 431.479 12.8789C432.24 11.3034 432.787 9.91992 433.119 8.72852C432.715 8.74805 432.436 8.75781 432.279 8.75781C431.895 8.75781 431.703 8.60156 431.703 8.28906C431.703 8.0612 431.765 7.9082 431.889 7.83008C432.012 7.75195 432.139 7.69661 432.27 7.66406C432.406 7.63151 432.52 7.61198 432.611 7.60547C432.709 7.59245 432.842 7.57943 433.012 7.56641C433.181 7.55339 433.305 7.54362 433.383 7.53711C433.467 7.04232 433.51 6.57682 433.51 6.14062L433.5 5.76953C433.5 5.47656 433.871 5.27799 434.613 5.17383C434.861 5.14128 435.639 4.97852 436.947 4.68555C438.256 4.39258 439.057 4.24609 439.35 4.24609C439.818 4.24609 440.053 4.40885 440.053 4.73438C440.053 5.29427 439.89 6.06901 439.564 7.05859ZM448.646 17.3809C448.484 17.3874 448.243 17.3906 447.924 17.3906C446.426 17.3906 445.014 17.2507 443.686 16.9707C442.364 16.6908 441.583 16.3652 441.342 15.9941C441.264 15.877 441.225 15.7305 441.225 15.5547C441.225 15.3789 441.433 15.099 441.85 14.7148C442.266 14.3242 442.553 14.1289 442.709 14.1289C442.865 14.1289 443.025 14.1875 443.188 14.3047C443.357 14.4154 443.542 14.5521 443.744 14.7148C443.946 14.8776 444.171 15.0404 444.418 15.2031C445.01 15.5938 445.723 15.7891 446.557 15.7891C446.889 15.7891 447.156 15.7044 447.357 15.5352C447.566 15.3659 447.67 15.1543 447.67 14.9004C447.67 14.64 447.582 14.4154 447.406 14.2266C447.237 14.0378 447.012 13.875 446.732 13.7383C446.459 13.5951 446.156 13.4551 445.824 13.3184C445.492 13.1751 445.157 13.0221 444.818 12.8594C444.486 12.6901 444.18 12.5078 443.9 12.3125C443.282 11.8763 442.973 11.3359 442.973 10.6914C442.973 10.0404 443.168 9.47721 443.559 9.00195C443.956 8.52669 444.454 8.14583 445.053 7.85938C445.652 7.57292 446.329 7.33203 447.084 7.13672C448.412 6.80469 449.665 6.63867 450.844 6.63867C452.029 6.63867 453.129 6.70052 454.145 6.82422C455.167 6.94141 455.87 7.11719 456.254 7.35156C456.358 7.41016 456.41 7.56641 456.41 7.82031C456.41 8.06771 456.322 8.42578 456.146 8.89453C455.971 9.35677 455.746 9.78646 455.473 10.1836C455.206 10.5742 454.965 10.7695 454.75 10.7695C454.665 10.7695 454.594 10.7337 454.535 10.6621C453.917 9.91992 453.314 9.35026 452.729 8.95312C452.149 8.54948 451.518 8.34766 450.834 8.34766C450.313 8.34766 449.939 8.45508 449.711 8.66992C449.49 8.87826 449.379 9.09635 449.379 9.32422C449.379 9.55208 449.503 9.77018 449.75 9.97852C450.004 10.1868 450.316 10.3757 450.688 10.5449C451.065 10.7142 451.472 10.9128 451.908 11.1406C452.351 11.362 452.758 11.5898 453.129 11.8242C453.507 12.0521 453.819 12.3418 454.066 12.6934C454.32 13.0384 454.447 13.4746 454.447 14.002C454.447 14.5293 454.255 15.0436 453.871 15.5449C455.486 15.2194 456.749 14.819 457.66 14.3438C457.816 14.2591 457.95 14.2168 458.061 14.2168C458.308 14.2168 458.432 14.3405 458.432 14.5879C458.432 14.7962 458.305 14.9883 458.051 15.1641C457.797 15.3333 457.377 15.5417 456.791 15.7891C456.205 16.0299 455.508 16.2741 454.701 16.5215C452.82 17.0944 450.801 17.3809 448.646 17.3809ZM473.773 10.9062L473.295 10.916C472.865 12.166 472.514 13.25 472.24 14.168C471.967 15.0794 471.745 15.6751 471.576 15.9551C471.413 16.2285 471.234 16.4499 471.039 16.6191C470.85 16.7819 470.606 16.9056 470.307 16.9902C469.812 17.127 469.141 17.1953 468.295 17.1953C467.449 17.1953 466.635 17.1009 465.854 16.9121C465.079 16.7233 464.46 16.4922 463.998 16.2188C463.536 15.9388 463.305 15.6686 463.305 15.4082C463.305 15.2585 463.37 15.1413 463.5 15.0566C463.624 14.9655 463.77 14.9199 463.939 14.9199C464.538 14.9199 464.978 14.8255 465.258 14.6367C465.544 14.4414 465.814 14.0866 466.068 13.5723C466.322 13.0579 466.573 12.4622 466.82 11.7852C467.074 11.1081 467.309 10.4798 467.523 9.90039C467.745 9.32096 467.999 8.72852 468.285 8.12305C468.897 6.82096 469.656 5.95182 470.561 5.51562C470.997 5.30729 471.576 5.14779 472.299 5.03711C473.021 4.91992 473.585 4.86133 473.988 4.86133C474.392 4.86133 474.656 4.86784 474.779 4.88086C474.903 4.88737 475.027 4.9069 475.15 4.93945C475.404 5.00456 475.531 5.14779 475.531 5.36914C475.531 5.50586 475.505 5.63281 475.453 5.75C475.401 5.86719 475.242 6.15039 474.975 6.59961C474.714 7.04232 474.265 8.16211 473.627 9.95898C477.084 9.55534 478.812 8.29232 478.812 6.16992C478.812 5.45378 478.588 4.91667 478.139 4.55859C477.676 4.20052 477.208 3.98242 476.732 3.9043C476.023 3.78711 475.242 3.72852 474.389 3.72852C473.542 3.72852 472.657 3.8099 471.732 3.97266C470.808 4.12891 470.089 4.30469 469.574 4.5C469.066 4.6888 468.611 4.86458 468.207 5.02734C467.81 5.18359 467.556 5.26172 467.445 5.26172C467.1 5.26172 466.928 5.14779 466.928 4.91992C466.928 4.63346 467.113 4.37305 467.484 4.13867C468.773 3.31185 470.248 2.68359 471.908 2.25391C473.568 1.82422 475.648 1.60938 478.148 1.60938C479.431 1.60938 480.502 1.74284 481.361 2.00977C482.221 2.27018 482.878 2.54688 483.334 2.83984C483.796 3.1263 484.174 3.50716 484.467 3.98242C484.76 4.45768 484.906 4.97852 484.906 5.54492C484.906 6.11133 484.799 6.61263 484.584 7.04883C484.369 7.47852 484.073 7.84961 483.695 8.16211C483.324 8.4681 482.852 8.74479 482.279 8.99219C481.29 9.41536 479.952 9.76042 478.266 10.0273C479.555 10.0273 480.574 10.2487 481.322 10.6914C482.071 11.1341 482.445 11.7591 482.445 12.5664L482.27 14.3047C482.27 14.7734 482.507 15.0404 482.982 15.1055C483.184 15.138 483.386 15.1641 483.588 15.1836C484.063 15.2227 484.301 15.4049 484.301 15.7305C484.301 16.1732 483.747 16.5605 482.641 16.8926C481.54 17.2246 480.333 17.3906 479.018 17.3906C476.537 17.3906 475.297 16.6647 475.297 15.2129C475.297 14.8613 475.404 14.36 475.619 13.709C475.834 13.0579 475.941 12.6217 475.941 12.4004C475.941 11.9902 475.772 11.6387 475.434 11.3457C475.095 11.0527 474.542 10.9062 473.773 10.9062ZM502.299 14.2168C502.527 14.2168 502.641 14.3242 502.641 14.5391C502.641 14.7474 502.484 14.9427 502.172 15.125C501.866 15.3008 501.485 15.4928 501.029 15.7012C500.574 15.903 499.945 16.1439 499.145 16.4238C497.302 17.0684 495.222 17.3906 492.904 17.3906C488.503 17.3906 486.303 16.0365 486.303 13.3281C486.303 12.0065 486.719 10.8346 487.553 9.8125C488.393 8.78385 489.516 7.99935 490.922 7.45898C492.328 6.91211 493.861 6.63867 495.521 6.63867C497.182 6.63867 498.396 6.89583 499.164 7.41016C499.939 7.92448 500.326 8.63086 500.326 9.5293C500.326 10.4538 499.955 11.209 499.213 11.7949C498.477 12.3809 497.497 12.8171 496.273 13.1035C495.043 13.39 493.633 13.5918 492.045 13.709C492.149 14.7181 492.872 15.3464 494.213 15.5938C494.558 15.6523 494.923 15.6816 495.307 15.6816C496.83 15.6816 499.027 15.2227 501.898 14.3047C502.074 14.2461 502.208 14.2168 502.299 14.2168ZM492.055 12.6348C493.188 12.3223 494.083 11.8438 494.74 11.1992C495.398 10.5547 495.727 9.77669 495.727 8.86523C495.727 8.62435 495.648 8.43229 495.492 8.28906C495.336 8.14583 495.098 8.07422 494.779 8.07422C494.467 8.07422 494.138 8.21094 493.793 8.48438C493.454 8.75781 493.168 9.11589 492.934 9.55859C492.439 10.4766 492.146 11.502 492.055 12.6348ZM507.846 17.3809C507.683 17.3874 507.442 17.3906 507.123 17.3906C505.626 17.3906 504.213 17.2507 502.885 16.9707C501.563 16.6908 500.782 16.3652 500.541 15.9941C500.463 15.877 500.424 15.7305 500.424 15.5547C500.424 15.3789 500.632 15.099 501.049 14.7148C501.465 14.3242 501.752 14.1289 501.908 14.1289C502.064 14.1289 502.224 14.1875 502.387 14.3047C502.556 14.4154 502.742 14.5521 502.943 14.7148C503.145 14.8776 503.37 15.0404 503.617 15.2031C504.21 15.5938 504.923 15.7891 505.756 15.7891C506.088 15.7891 506.355 15.7044 506.557 15.5352C506.765 15.3659 506.869 15.1543 506.869 14.9004C506.869 14.64 506.781 14.4154 506.605 14.2266C506.436 14.0378 506.212 13.875 505.932 13.7383C505.658 13.5951 505.355 13.4551 505.023 13.3184C504.691 13.1751 504.356 13.0221 504.018 12.8594C503.686 12.6901 503.38 12.5078 503.1 12.3125C502.481 11.8763 502.172 11.3359 502.172 10.6914C502.172 10.0404 502.367 9.47721 502.758 9.00195C503.155 8.52669 503.653 8.14583 504.252 7.85938C504.851 7.57292 505.528 7.33203 506.283 7.13672C507.611 6.80469 508.865 6.63867 510.043 6.63867C511.228 6.63867 512.328 6.70052 513.344 6.82422C514.366 6.94141 515.069 7.11719 515.453 7.35156C515.557 7.41016 515.609 7.56641 515.609 7.82031C515.609 8.06771 515.521 8.42578 515.346 8.89453C515.17 9.35677 514.945 9.78646 514.672 10.1836C514.405 10.5742 514.164 10.7695 513.949 10.7695C513.865 10.7695 513.793 10.7337 513.734 10.6621C513.116 9.91992 512.514 9.35026 511.928 8.95312C511.348 8.54948 510.717 8.34766 510.033 8.34766C509.512 8.34766 509.138 8.45508 508.91 8.66992C508.689 8.87826 508.578 9.09635 508.578 9.32422C508.578 9.55208 508.702 9.77018 508.949 9.97852C509.203 10.1868 509.516 10.3757 509.887 10.5449C510.264 10.7142 510.671 10.9128 511.107 11.1406C511.55 11.362 511.957 11.5898 512.328 11.8242C512.706 12.0521 513.018 12.3418 513.266 12.6934C513.52 13.0384 513.646 13.4746 513.646 14.002C513.646 14.5293 513.454 15.0436 513.07 15.5449C514.685 15.2194 515.948 14.819 516.859 14.3438C517.016 14.2591 517.149 14.2168 517.26 14.2168C517.507 14.2168 517.631 14.3405 517.631 14.5879C517.631 14.7962 517.504 14.9883 517.25 15.1641C516.996 15.3333 516.576 15.5417 515.99 15.7891C515.404 16.0299 514.708 16.2741 513.9 16.5215C512.019 17.0944 510.001 17.3809 507.846 17.3809ZM523.422 14.9102C524.646 14.9102 525.668 13.9727 526.488 12.0977C526.866 11.2383 527.055 10.5417 527.055 10.0078C527.055 9.47396 526.964 9.10612 526.781 8.9043C526.605 8.70247 526.254 8.60156 525.727 8.60156C525.206 8.60156 524.639 8.8457 524.027 9.33398C523.422 9.81576 522.934 10.4245 522.562 11.1602C522.191 11.8958 522.006 12.5599 522.006 13.1523C522.006 13.7383 522.136 14.1777 522.396 14.4707C522.657 14.7637 522.999 14.9102 523.422 14.9102ZM528.5 6.63867L532.973 6.84375C533.142 6.84375 533.269 6.89583 533.354 7C533.438 7.09766 533.48 7.20833 533.48 7.33203C533.48 7.80729 533.282 8.56576 532.885 9.60742C532.494 10.6426 532.1 11.6712 531.703 12.6934C531.312 13.709 531.117 14.3828 531.117 14.7148C531.117 15.0404 531.166 15.2487 531.264 15.3398C531.368 15.431 531.563 15.4766 531.85 15.4766C532.136 15.4766 532.657 15.3398 533.412 15.0664C534.174 14.7865 534.688 14.5749 534.955 14.4316C535.229 14.2884 535.437 14.2168 535.58 14.2168C535.834 14.2168 535.961 14.3307 535.961 14.5586C535.961 15.0404 534.984 15.6719 533.031 16.4531C532.374 16.7201 531.579 16.9414 530.648 17.1172C529.724 17.2995 528.783 17.3906 527.826 17.3906C526.231 17.3906 525.271 16.8828 524.945 15.8672C523.93 16.8828 522.562 17.3906 520.844 17.3906C519.665 17.3906 518.669 17.1074 517.855 16.541C516.97 15.9225 516.527 14.9492 516.527 13.6211C516.527 12.2214 516.941 10.9323 517.768 9.75391C518.673 8.44531 519.883 7.54362 521.4 7.04883C522.24 6.77539 523.142 6.63867 524.105 6.63867C525.583 6.63867 526.732 7.00326 527.553 7.73242C527.559 7.69336 527.562 7.63151 527.562 7.54688L527.553 7.12695C527.553 6.80143 527.868 6.63867 528.5 6.63867ZM537.826 6.95117L542.455 6.84375C542.624 6.84375 542.751 6.89583 542.836 7C542.921 7.09766 542.963 7.1888 542.963 7.27344C542.963 7.35807 542.94 7.49805 542.895 7.69336C542.849 7.88867 542.79 8.1263 542.719 8.40625C542.647 8.67969 542.602 8.85547 542.582 8.93359C543.09 8.32812 543.725 7.79427 544.486 7.33203C545.248 6.86979 545.919 6.63867 546.498 6.63867C547.729 6.63867 548.344 6.9056 548.344 7.43945C548.344 7.9668 548.178 8.60156 547.846 9.34375C547.514 10.0794 547.201 10.5645 546.908 10.7988C546.765 10.903 546.589 10.9551 546.381 10.9551C546.179 10.9551 545.99 10.89 545.814 10.7598C545.027 10.1738 544.167 9.88086 543.236 9.88086C542.878 9.88086 542.566 9.9069 542.299 9.95898C542.045 10.8314 541.641 12.1139 541.088 13.8066C540.535 15.4928 540.229 16.4336 540.17 16.6289C540.072 16.9349 539.89 17.0879 539.623 17.0879C538.679 17.0879 537.667 17.1367 536.586 17.2344C535.505 17.3385 534.883 17.3906 534.721 17.3906C534.564 17.3906 534.441 17.3451 534.35 17.2539C534.265 17.1693 534.223 17.0684 534.223 16.9512C534.223 16.8275 534.359 16.3913 534.633 15.6426C534.913 14.8874 535.219 14.0768 535.551 13.2109C535.889 12.3451 536.195 11.3945 536.469 10.3594C536.749 9.32422 536.889 8.47461 536.889 7.81055L536.879 7.43945C536.879 7.11393 537.195 6.95117 537.826 6.95117ZM550.736 6.95117L555.902 6.84375C556.117 6.84375 556.225 6.98698 556.225 7.27344C556.225 7.42969 556.166 7.58594 556.049 7.74219C555.469 8.49089 555.001 9.34049 554.643 10.291C554.291 11.2415 554.115 12.1693 554.115 13.0742C554.115 13.543 554.213 13.9531 554.408 14.3047C554.604 14.6562 554.841 14.832 555.121 14.832C555.622 14.832 556.192 14.4154 556.83 13.582C557.475 12.7487 558.038 11.7721 558.52 10.6523C559.008 9.53255 559.324 8.52995 559.467 7.64453C559.506 7.40365 559.564 7.23438 559.643 7.13672C559.721 7.03906 559.88 6.99023 560.121 6.99023L563.939 6.88281C564.174 6.88281 564.291 6.97396 564.291 7.15625V7.29297C564.291 8.08724 563.969 9.07031 563.324 10.2422C563.52 10.2747 563.754 10.291 564.027 10.291C565.049 10.291 565.98 10.0566 566.82 9.58789C567.003 9.48372 567.156 9.43164 567.279 9.43164C567.54 9.43164 567.67 9.55208 567.67 9.79297C567.67 10.0273 567.53 10.252 567.25 10.4668C566.312 11.1829 565.049 11.541 563.461 11.541C563.09 11.541 562.787 11.5215 562.553 11.4824C562.507 11.5605 562.432 11.6712 562.328 11.8145C561.638 12.778 560.642 13.7253 559.34 14.6562C558.044 15.5872 556.745 16.3294 555.443 16.8828C554.141 17.4362 553.077 17.7129 552.25 17.7129C551.645 17.7129 551.023 17.4883 550.385 17.0391C549.109 16.1471 548.471 14.7799 548.471 12.9375C548.471 12.1497 548.617 11.2122 548.91 10.125C549.21 9.03776 549.545 8.16536 549.916 7.50781C550.124 7.14323 550.398 6.95768 550.736 6.95117ZM580.639 14.2168C580.867 14.2168 580.98 14.3242 580.98 14.5391C580.98 14.7474 580.824 14.9427 580.512 15.125C580.206 15.3008 579.825 15.4928 579.369 15.7012C578.913 15.903 578.285 16.1439 577.484 16.4238C575.642 17.0684 573.562 17.3906 571.244 17.3906C566.843 17.3906 564.643 16.0365 564.643 13.3281C564.643 12.0065 565.059 10.8346 565.893 9.8125C566.732 8.78385 567.855 7.99935 569.262 7.45898C570.668 6.91211 572.201 6.63867 573.861 6.63867C575.521 6.63867 576.736 6.89583 577.504 7.41016C578.279 7.92448 578.666 8.63086 578.666 9.5293C578.666 10.4538 578.295 11.209 577.553 11.7949C576.817 12.3809 575.837 12.8171 574.613 13.1035C573.383 13.39 571.973 13.5918 570.385 13.709C570.489 14.7181 571.212 15.3464 572.553 15.5938C572.898 15.6523 573.262 15.6816 573.646 15.6816C575.17 15.6816 577.367 15.2227 580.238 14.3047C580.414 14.2461 580.548 14.2168 580.639 14.2168ZM570.395 12.6348C571.527 12.3223 572.423 11.8438 573.08 11.1992C573.738 10.5547 574.066 9.77669 574.066 8.86523C574.066 8.62435 573.988 8.43229 573.832 8.28906C573.676 8.14583 573.438 8.07422 573.119 8.07422C572.807 8.07422 572.478 8.21094 572.133 8.48438C571.794 8.75781 571.508 9.11589 571.273 9.55859C570.779 10.4766 570.486 11.502 570.395 12.6348ZM598.881 14.2168C599.174 14.2168 599.32 14.3503 599.32 14.6172C599.32 14.806 599.184 15.0013 598.91 15.2031C598.181 15.737 597.09 16.235 595.639 16.6973C594.193 17.1595 592.93 17.3906 591.85 17.3906C590.769 17.3906 589.971 17.2767 589.457 17.0488C588.949 16.8275 588.598 16.4336 588.402 15.8672C588.025 16.2513 587.481 16.6029 586.771 16.9219C586.062 17.2344 585.31 17.3906 584.516 17.3906C583.728 17.3906 583.083 17.319 582.582 17.1758C582.081 17.0391 581.625 16.8275 581.215 16.541C580.805 16.2546 580.479 15.8639 580.238 15.3691C580.004 14.8678 579.887 14.2852 579.887 13.6211C579.887 12.957 579.988 12.2962 580.189 11.6387C580.391 10.9811 580.701 10.3529 581.117 9.75391C581.54 9.14844 582.045 8.61458 582.631 8.15234C583.217 7.6901 583.926 7.32227 584.76 7.04883C585.6 6.77539 586.501 6.63867 587.465 6.63867C589.047 6.63867 590.362 7.03255 591.41 7.82031C591.775 5.5026 591.957 3.98893 591.957 3.2793L591.947 2.99609C591.947 2.67057 592.263 2.50781 592.895 2.50781L597.27 2.71289C597.426 2.71289 597.549 2.76172 597.641 2.85938C597.732 2.95052 597.777 3.05469 597.777 3.17188C597.777 4.1875 597.24 6.27083 596.166 9.42188C595.092 12.5664 594.555 14.2917 594.555 14.5977C594.555 14.9036 594.597 15.1217 594.682 15.252C594.773 15.3822 594.958 15.4473 595.238 15.4473C595.518 15.4473 596 15.3301 596.684 15.0957C597.367 14.8613 597.882 14.6562 598.227 14.4805C598.572 14.3047 598.79 14.2168 598.881 14.2168ZM586.781 14.9102C588.005 14.9102 589.027 13.9727 589.848 12.0977C590.316 11.1992 590.551 10.4049 590.551 9.71484C590.551 9.33724 590.46 9.04753 590.277 8.8457C590.102 8.64388 589.747 8.54297 589.213 8.54297C588.686 8.54297 588.106 8.79036 587.475 9.28516C586.843 9.77995 586.332 10.4017 585.941 11.1504C585.557 11.8926 585.365 12.5599 585.365 13.1523C585.365 13.7383 585.495 14.1777 585.756 14.4707C586.016 14.7637 586.358 14.9102 586.781 14.9102ZM605.58 16.1699C605.202 16.5931 604.704 16.9284 604.086 17.1758C603.474 17.4232 602.803 17.5469 602.074 17.5469C601.352 17.5469 600.74 17.3613 600.238 16.9902C599.737 16.6191 599.486 16.1699 599.486 15.6426C599.486 15.1152 599.678 14.6367 600.062 14.207C600.453 13.7708 600.954 13.429 601.566 13.1816C602.178 12.9342 602.846 12.8105 603.568 12.8105C604.298 12.8105 604.91 13.0026 605.404 13.3867C605.906 13.7643 606.156 14.2168 606.156 14.7441C606.156 15.265 605.964 15.7402 605.58 16.1699Z" fill="white"/>
</svg>
