<svg width="625" height="29" viewBox="0 0 625 29" fill="none" xmlns="http://www.w3.org/2000/svg">
<path d="M21.0156 8.14453C21.0156 7.82552 20.7747 7.66602 20.293 7.66602C19.8177 7.66602 19.3099 7.95898 18.7695 8.54492C18.2292 9.13086 17.7702 9.86654 17.3926 10.752C17.015 11.6309 16.8262 12.4479 16.8262 13.2031C16.8262 13.9518 17.0052 14.5475 17.3633 14.9902C17.7279 15.4329 18.2845 15.6543 19.0332 15.6543C19.7624 15.6543 20.5078 15.5208 21.2695 15.2539C21.5234 15.1693 21.735 15.127 21.9043 15.127C22.0736 15.127 22.1582 15.1953 22.1582 15.332C22.1582 15.599 21.9206 15.8789 21.4453 16.1719C20.9701 16.4583 20.3711 16.6992 19.6484 16.8945C18.9258 17.0833 18.2324 17.1777 17.5684 17.1777C16.2207 17.1777 15.1367 16.8457 14.3164 16.1816C13.5026 15.5111 13.0957 14.6191 13.0957 13.5059C13.0957 12.8092 13.2389 12.1159 13.5254 11.4258C13.8184 10.7292 14.2057 10.1042 14.6875 9.55078C15.1758 8.9974 15.7227 8.50586 16.3281 8.07617C17.6042 7.17122 18.8184 6.71875 19.9707 6.71875C21.1296 6.71875 21.9824 6.97266 22.5293 7.48047C23.0827 7.98177 23.3594 8.67188 23.3594 9.55078C23.3594 10.5924 23.0078 11.3737 22.3047 11.8945C21.9336 12.1745 21.5527 12.3145 21.1621 12.3145C20.7715 12.3145 20.4492 12.2526 20.1953 12.1289C19.9414 12.0052 19.8145 11.8164 19.8145 11.5625C19.8145 11.4583 20.013 10.9147 20.4102 9.93164C20.8138 8.94857 21.0156 8.35286 21.0156 8.14453ZM10.166 15.7129C9.69076 14.5931 9.45312 13.418 9.45312 12.1875C9.45312 10.957 9.69076 9.7819 10.166 8.66211C10.6478 7.54232 11.2956 6.57552 12.1094 5.76172C12.9232 4.94792 13.89 4.30339 15.0098 3.82812C16.1296 3.34635 17.3047 3.10547 18.5352 3.10547C19.7656 3.10547 20.9408 3.34635 22.0605 3.82812C23.1803 4.30339 24.1471 4.94792 24.9609 5.76172C25.7747 6.57552 26.4193 7.54232 26.8945 8.66211C27.3763 9.7819 27.6172 10.957 27.6172 12.1875C27.6172 13.418 27.3763 14.5931 26.8945 15.7129C26.4193 16.8327 25.7747 17.7995 24.9609 18.6133C24.1471 19.4271 23.1803 20.0716 22.0605 20.5469C20.9408 21.0286 19.7656 21.2695 18.5352 21.2695C17.3047 21.2695 16.1296 21.0286 15.0098 20.5469C13.89 20.0716 12.9232 19.4271 12.1094 18.6133C11.2956 17.7995 10.6478 16.8327 10.166 15.7129ZM10.5762 12.1777C10.5762 13.61 10.931 14.9349 11.6406 16.1523C12.3503 17.3698 13.3138 18.3333 14.5312 19.043C15.7487 19.7526 17.0736 20.1074 18.5059 20.1074C19.5801 20.1074 20.6087 19.8991 21.5918 19.4824C22.5749 19.0592 23.4212 18.4961 24.1309 17.793C24.8405 17.0833 25.4036 16.2402 25.8203 15.2637C26.2435 14.2806 26.4551 13.252 26.4551 12.1777C26.4551 11.1035 26.2435 10.0749 25.8203 9.0918C25.4036 8.10872 24.8405 7.26237 24.1309 6.55273C23.4212 5.8431 22.5749 5.27995 21.5918 4.86328C20.6087 4.4401 19.5801 4.22852 18.5059 4.22852C17.4316 4.22852 16.403 4.4401 15.4199 4.86328C14.4434 5.27995 13.6003 5.8431 12.8906 6.55273C12.1875 7.26237 11.6243 8.10872 11.2012 9.0918C10.7845 10.0749 10.5762 11.1035 10.5762 12.1777ZM31.8262 18.7402C31.2858 19.5215 30.8496 19.9121 30.5176 19.9121C29.7949 19.9121 29.3522 19.7461 29.1895 19.4141C29.1113 19.2708 29.0723 19.0918 29.0723 18.877C29.0723 18.3171 29.6745 17.4642 30.8789 16.3184C32.0833 15.1725 33.7923 13.89 36.0059 12.4707C37.6074 11.4551 38.6328 10.7227 39.082 10.2734C39.5573 9.79818 39.8372 9.41732 39.9219 9.13086C40.013 8.83789 40.0586 8.57096 40.0586 8.33008C40.0586 7.43815 39.4206 6.99219 38.1445 6.99219C36.862 6.99219 35.472 7.27214 33.9746 7.83203C33.3757 8.05339 33.0404 8.17708 32.9688 8.20312C32.8971 8.22917 32.8027 8.24219 32.6855 8.24219C32.334 8.24219 32.1582 8.08268 32.1582 7.76367C32.1582 7.58138 32.2038 7.41211 32.2949 7.25586C32.3926 7.0931 32.5684 6.88802 32.8223 6.64062C34.6322 4.89583 36.9531 4.02344 39.7852 4.02344C41.6211 4.02344 43.0371 4.42057 44.0332 5.21484C44.7949 5.82682 45.1758 6.67318 45.1758 7.75391C45.1758 9.09505 44.5703 10.2409 43.3594 11.1914C42.3047 12.0247 40.9017 12.8158 39.1504 13.5645C38.3171 13.9225 37.5163 14.2643 36.748 14.5898C34.821 15.3906 33.3594 16.1589 32.3633 16.8945C34.0755 16.8555 37.1224 16.4486 41.5039 15.6738C42.9427 15.4199 43.7956 15.293 44.0625 15.293C44.3294 15.293 44.5312 15.3483 44.668 15.459C44.8112 15.5697 44.8828 15.7617 44.8828 16.0352C44.8828 16.3021 44.7591 16.7904 44.5117 17.5C44.2643 18.2031 43.9355 18.8672 43.5254 19.4922C43.1152 20.1172 42.7441 20.446 42.4121 20.4785C42.0866 20.5176 41.7122 20.5371 41.2891 20.5371C40.1953 20.5371 38.6035 20.332 36.5137 19.9219C34.4238 19.5117 32.8613 19.1178 31.8262 18.7402ZM55.4883 7.2168C55.8984 7.2168 56.1035 7.34701 56.1035 7.60742C56.1035 7.7832 55.918 8.08594 55.5469 8.51562C54.8047 9.38802 54.2285 10.5306 53.8184 11.9434C53.4147 13.3496 53.2129 14.7852 53.2129 16.25C53.2129 18.1315 53.7077 19.0723 54.6973 19.0723C55.3874 19.0723 56.0514 18.5905 56.6895 17.627C57.3275 16.6569 57.8385 15.3711 58.2227 13.7695C58.6133 12.168 58.8086 10.4915 58.8086 8.74023C58.8086 7.80924 58.584 7.10286 58.1348 6.62109C57.6921 6.13932 57.1582 5.89844 56.5332 5.89844C56.1882 5.89844 55.6966 5.97331 55.0586 6.12305C54.4271 6.27279 54.0723 6.34766 53.9941 6.34766C53.6947 6.34766 53.5449 6.21745 53.5449 5.95703C53.5449 5.78125 53.6719 5.58594 53.9258 5.37109C54.1862 5.14974 54.528 4.94141 54.9512 4.74609C55.9603 4.27083 57.0378 4.0332 58.1836 4.0332C59.3359 4.0332 60.2832 4.19271 61.0254 4.51172C61.7676 4.83073 62.373 5.27344 62.8418 5.83984C63.8118 6.99219 64.2969 8.44727 64.2969 10.2051C64.2969 11.429 64.1276 12.5879 63.7891 13.6816C63.457 14.7689 62.9948 15.7259 62.4023 16.5527C61.8099 17.373 61.123 18.0859 60.3418 18.6914C58.7467 19.9089 56.9401 20.5176 54.9219 20.5176C52.8516 20.5176 51.263 19.9805 50.1562 18.9062C49.0755 17.8646 48.5352 16.4681 48.5352 14.7168C48.5352 13.584 48.7142 12.5456 49.0723 11.6016C49.4303 10.6576 49.9186 9.86654 50.5371 9.22852C51.1621 8.59049 51.8978 8.0957 52.7441 7.74414C53.597 7.39258 54.5117 7.2168 55.4883 7.2168ZM68.5059 18.7402C67.9655 19.5215 67.5293 19.9121 67.1973 19.9121C66.4746 19.9121 66.0319 19.7461 65.8691 19.4141C65.791 19.2708 65.752 19.0918 65.752 18.877C65.752 18.3171 66.3542 17.4642 67.5586 16.3184C68.763 15.1725 70.472 13.89 72.6855 12.4707C74.2871 11.4551 75.3125 10.7227 75.7617 10.2734C76.237 9.79818 76.5169 9.41732 76.6016 9.13086C76.6927 8.83789 76.7383 8.57096 76.7383 8.33008C76.7383 7.43815 76.1003 6.99219 74.8242 6.99219C73.5417 6.99219 72.1517 7.27214 70.6543 7.83203C70.0553 8.05339 69.7201 8.17708 69.6484 8.20312C69.5768 8.22917 69.4824 8.24219 69.3652 8.24219C69.0137 8.24219 68.8379 8.08268 68.8379 7.76367C68.8379 7.58138 68.8835 7.41211 68.9746 7.25586C69.0723 7.0931 69.248 6.88802 69.502 6.64062C71.3118 4.89583 73.6328 4.02344 76.4648 4.02344C78.3008 4.02344 79.7168 4.42057 80.7129 5.21484C81.4746 5.82682 81.8555 6.67318 81.8555 7.75391C81.8555 9.09505 81.25 10.2409 80.0391 11.1914C78.9844 12.0247 77.5814 12.8158 75.8301 13.5645C74.9967 13.9225 74.196 14.2643 73.4277 14.5898C71.5007 15.3906 70.0391 16.1589 69.043 16.8945C70.7552 16.8555 73.8021 16.4486 78.1836 15.6738C79.6224 15.4199 80.4753 15.293 80.7422 15.293C81.0091 15.293 81.2109 15.3483 81.3477 15.459C81.4909 15.5697 81.5625 15.7617 81.5625 16.0352C81.5625 16.3021 81.4388 16.7904 81.1914 17.5C80.944 18.2031 80.6152 18.8672 80.2051 19.4922C79.7949 20.1172 79.4238 20.446 79.0918 20.4785C78.7663 20.5176 78.3919 20.5371 77.9688 20.5371C76.875 20.5371 75.2832 20.332 73.1934 19.9219C71.1035 19.5117 69.541 19.1178 68.5059 18.7402ZM98.584 13.5938C100.042 13.6198 100.791 13.6328 100.83 13.6328C101.084 13.6328 101.211 13.7695 101.211 14.043C101.211 14.2643 101.159 14.515 101.055 14.7949C100.996 14.9577 100.804 15.0586 100.479 15.0977C100.153 15.1302 99.3424 15.1888 98.0469 15.2734C97.6432 16.5951 97.4284 17.6693 97.4023 18.4961C97.3958 18.6393 97.3796 18.8346 97.3535 19.082C97.334 19.3229 97.3242 19.515 97.3242 19.6582C97.3242 19.7949 97.2266 19.9219 97.0312 20.0391C96.8424 20.1562 96.6309 20.2148 96.3965 20.2148L92.5098 20.2734C91.8262 20.2734 91.4844 19.9935 91.4844 19.4336C91.4844 18.457 91.901 17.1842 92.7344 15.6152C90.1888 15.765 88.4408 15.8398 87.4902 15.8398C86.5462 15.8398 85.944 15.7878 85.6836 15.6836C85.4232 15.5729 85.1172 15.3451 84.7656 15C84.4141 14.6549 84.2383 14.3652 84.2383 14.1309C84.2383 14.0592 84.2839 13.9648 84.375 13.8477C84.4661 13.724 84.7298 13.4049 85.166 12.8906C85.6087 12.3698 86.0156 11.8685 86.3867 11.3867C86.7643 10.8984 87.1777 10.3255 87.627 9.66797C88.5905 8.24219 89.2806 6.72852 89.6973 5.12695C89.8014 4.73633 89.9447 4.46615 90.127 4.31641C90.3158 4.16667 90.5957 4.0918 90.9668 4.0918L96.3574 3.93555C96.8262 3.93555 97.0605 4.10482 97.0605 4.44336C97.0605 4.59961 97.0085 4.79167 96.9043 5.01953C96.8587 5.11719 96.1816 5.80404 94.873 7.08008C91.0124 10.8301 89.082 12.8516 89.082 13.1445C89.082 13.431 90.3483 13.5742 92.8809 13.5742C93.2194 13.5742 93.5547 13.5742 93.8867 13.5742C94.0169 13.3529 94.1927 13.0599 94.4141 12.6953C94.6354 12.3307 94.8079 12.0443 94.9316 11.8359C95.0553 11.6276 95.1888 11.3965 95.332 11.1426C95.6055 10.6543 95.7682 10.2962 95.8203 10.0684C95.918 9.63216 96.1979 9.41406 96.6602 9.41406L98.2324 9.43359C98.6686 9.43359 98.9746 9.52148 99.1504 9.69727C99.3262 9.86654 99.4141 10.1725 99.4141 10.6152C99.4141 11.0514 99.1374 12.0443 98.584 13.5938ZM102.764 19.2383C102.601 19.1602 102.52 18.9974 102.52 18.75C102.52 18.5026 102.718 17.9753 103.115 17.168C103.512 16.3542 103.825 15.9473 104.053 15.9473C104.183 15.9473 104.385 16.0384 104.658 16.2207C104.932 16.3965 105.247 16.6113 105.605 16.8652C105.97 17.1191 106.364 17.3698 106.787 17.6172C107.816 18.2292 108.815 18.5352 109.785 18.5352C110.267 18.5352 110.612 18.4375 110.82 18.2422C111.029 18.0469 111.133 17.8516 111.133 17.6562C111.133 17.4544 111.022 17.2298 110.801 16.9824C110.579 16.7285 110.29 16.4681 109.932 16.2012C109.58 15.9342 109.189 15.6543 108.76 15.3613C108.33 15.0618 107.9 14.7461 107.471 14.4141C107.041 14.082 106.65 13.75 106.299 13.418C105.498 12.6628 105.098 11.9271 105.098 11.2109C105.098 10.7031 105.231 10.2441 105.498 9.83398C105.771 9.42383 106.117 9.0918 106.533 8.83789C106.956 8.58398 107.435 8.3724 107.969 8.20312C108.926 7.89062 109.912 7.73438 110.928 7.73438C111.208 7.73438 111.416 7.77669 111.553 7.86133C111.689 7.94596 111.758 8.04362 111.758 8.1543C111.758 8.26497 111.709 8.43424 111.611 8.66211C111.514 8.88346 111.465 9.08203 111.465 9.25781C111.465 9.43359 111.582 9.6582 111.816 9.93164C112.057 10.2051 112.367 10.485 112.744 10.7715C113.122 11.0579 113.538 11.3639 113.994 11.6895C114.45 12.015 114.906 12.36 115.361 12.7246C115.817 13.0892 116.234 13.4603 116.611 13.8379C117.464 14.6908 117.891 15.5176 117.891 16.3184C117.891 17.1126 117.682 17.7767 117.266 18.3105C116.855 18.8444 116.283 19.2578 115.547 19.5508C114.811 19.8438 114.004 20.0553 113.125 20.1855C112.246 20.3223 111.175 20.3906 109.912 20.3906C108.649 20.3906 107.256 20.2604 105.732 20C104.215 19.7331 103.226 19.4792 102.764 19.2383ZM118.936 9.67773C118.083 8.66211 117.025 7.9069 115.762 7.41211C114.505 6.91081 113.193 6.66016 111.826 6.66016C109.32 6.66016 106.904 7.13216 104.58 8.07617C104.268 8.19987 104.046 8.26172 103.916 8.26172C103.656 8.26172 103.525 8.13802 103.525 7.89062C103.525 7.6888 103.698 7.44792 104.043 7.16797C104.395 6.88802 104.896 6.60156 105.547 6.30859C106.204 6.00911 106.947 5.73242 107.773 5.47852C109.661 4.89909 111.686 4.60938 113.848 4.60938C117.044 4.60938 119.456 5.05859 121.084 5.95703C121.175 6.00911 121.214 6.16536 121.201 6.42578C121.195 6.67969 121.077 7.07357 120.85 7.60742C120.622 8.14128 120.345 8.63607 120.02 9.0918C119.701 9.54753 119.427 9.77539 119.199 9.77539C119.141 9.71029 119.053 9.67773 118.936 9.67773ZM127.637 17.9102C128.861 17.9102 129.883 16.9727 130.703 15.0977C131.081 14.2383 131.27 13.5417 131.27 13.0078C131.27 12.474 131.178 12.1061 130.996 11.9043C130.82 11.7025 130.469 11.6016 129.941 11.6016C129.421 11.6016 128.854 11.8457 128.242 12.334C127.637 12.8158 127.148 13.4245 126.777 14.1602C126.406 14.8958 126.221 15.5599 126.221 16.1523C126.221 16.7383 126.351 17.1777 126.611 17.4707C126.872 17.7637 127.214 17.9102 127.637 17.9102ZM132.715 9.63867L137.188 9.84375C137.357 9.84375 137.484 9.89583 137.568 10C137.653 10.0977 137.695 10.2083 137.695 10.332C137.695 10.8073 137.497 11.5658 137.1 12.6074C136.709 13.6426 136.315 14.6712 135.918 15.6934C135.527 16.709 135.332 17.3828 135.332 17.7148C135.332 18.0404 135.381 18.2487 135.479 18.3398C135.583 18.431 135.778 18.4766 136.064 18.4766C136.351 18.4766 136.872 18.3398 137.627 18.0664C138.389 17.7865 138.903 17.5749 139.17 17.4316C139.443 17.2884 139.652 17.2168 139.795 17.2168C140.049 17.2168 140.176 17.3307 140.176 17.5586C140.176 18.0404 139.199 18.6719 137.246 19.4531C136.589 19.7201 135.794 19.9414 134.863 20.1172C133.939 20.2995 132.998 20.3906 132.041 20.3906C130.446 20.3906 129.486 19.8828 129.16 18.8672C128.145 19.8828 126.777 20.3906 125.059 20.3906C123.88 20.3906 122.884 20.1074 122.07 19.541C121.185 18.9225 120.742 17.9492 120.742 16.6211C120.742 15.2214 121.156 13.9323 121.982 12.7539C122.887 11.4453 124.098 10.5436 125.615 10.0488C126.455 9.77539 127.357 9.63867 128.32 9.63867C129.798 9.63867 130.947 10.0033 131.768 10.7324C131.774 10.6934 131.777 10.6315 131.777 10.5469L131.768 10.127C131.768 9.80143 132.083 9.63867 132.715 9.63867ZM141.826 9.95117L146.26 9.84375C146.429 9.84375 146.556 9.89583 146.641 10C146.725 10.0977 146.768 10.2116 146.768 10.3418C146.768 10.4655 146.745 10.6836 146.699 10.9961C146.654 11.3021 146.631 11.5267 146.631 11.6699C147.829 10.3158 149.427 9.63867 151.426 9.63867C152.643 9.63867 153.6 9.95117 154.297 10.5762C155 11.1947 155.352 12.0736 155.352 13.2129C155.352 15.4264 154.482 17.2363 152.744 18.6426C154.762 18.4993 156.312 18.125 157.393 17.5195C157.751 17.3177 158.014 17.2168 158.184 17.2168C158.405 17.2168 158.516 17.3372 158.516 17.5781C158.516 17.7474 158.395 17.9199 158.154 18.0957C157.048 18.8704 155.622 19.4434 153.877 19.8145C152.139 20.1855 150.267 20.3711 148.262 20.3711C148.014 20.3841 147.829 20.3906 147.705 20.3906C147.015 20.3906 146.325 20.2865 145.635 20.0781C144.945 19.8698 144.372 19.5768 143.916 19.1992C143.467 20.5729 143.242 22.1582 143.242 23.9551L143.252 24.2383C143.252 24.5638 142.936 24.7266 142.305 24.7266L137.764 24.8438C137.607 24.8438 137.484 24.7949 137.393 24.6973C137.301 24.6061 137.256 24.502 137.256 24.3848C137.256 23.2715 137.865 21.1133 139.082 17.9102C140.299 14.7005 140.908 12.5521 140.908 11.4648L140.869 10.6543C140.869 10.4134 140.928 10.2376 141.045 10.127C141.169 10.0098 141.429 9.95117 141.826 9.95117ZM148.545 12.1191C147.321 12.1191 146.299 13.0566 145.479 14.9316C145.101 15.791 144.912 16.4876 144.912 17.0215C144.912 17.5553 145 17.9232 145.176 18.125C145.358 18.3268 145.71 18.4277 146.23 18.4277C146.758 18.4277 147.324 18.1868 147.93 17.7051C148.542 17.2168 149.033 16.6048 149.404 15.8691C149.775 15.1335 149.961 14.4727 149.961 13.8867C149.961 13.2943 149.831 12.8516 149.57 12.5586C149.31 12.2656 148.968 12.1191 148.545 12.1191ZM160.166 9.95117L164.6 9.84375C164.769 9.84375 164.896 9.89583 164.98 10C165.065 10.0977 165.107 10.2116 165.107 10.3418C165.107 10.4655 165.085 10.6836 165.039 10.9961C164.993 11.3021 164.971 11.5267 164.971 11.6699C166.169 10.3158 167.767 9.63867 169.766 9.63867C170.983 9.63867 171.94 9.95117 172.637 10.5762C173.34 11.1947 173.691 12.0736 173.691 13.2129C173.691 15.4264 172.822 17.2363 171.084 18.6426C173.102 18.4993 174.652 18.125 175.732 17.5195C176.09 17.3177 176.354 17.2168 176.523 17.2168C176.745 17.2168 176.855 17.3372 176.855 17.5781C176.855 17.7474 176.735 17.9199 176.494 18.0957C175.387 18.8704 173.962 19.4434 172.217 19.8145C170.479 20.1855 168.607 20.3711 166.602 20.3711C166.354 20.3841 166.169 20.3906 166.045 20.3906C165.355 20.3906 164.665 20.2865 163.975 20.0781C163.285 19.8698 162.712 19.5768 162.256 19.1992C161.807 20.5729 161.582 22.1582 161.582 23.9551L161.592 24.2383C161.592 24.5638 161.276 24.7266 160.645 24.7266L156.104 24.8438C155.947 24.8438 155.824 24.7949 155.732 24.6973C155.641 24.6061 155.596 24.502 155.596 24.3848C155.596 23.2715 156.204 21.1133 157.422 17.9102C158.639 14.7005 159.248 12.5521 159.248 11.4648L159.209 10.6543C159.209 10.4134 159.268 10.2376 159.385 10.127C159.508 10.0098 159.769 9.95117 160.166 9.95117ZM166.885 12.1191C165.661 12.1191 164.639 13.0566 163.818 14.9316C163.441 15.791 163.252 16.4876 163.252 17.0215C163.252 17.5553 163.34 17.9232 163.516 18.125C163.698 18.3268 164.049 18.4277 164.57 18.4277C165.098 18.4277 165.664 18.1868 166.27 17.7051C166.882 17.2168 167.373 16.6048 167.744 15.8691C168.115 15.1335 168.301 14.4727 168.301 13.8867C168.301 13.2943 168.171 12.8516 167.91 12.5586C167.65 12.2656 167.308 12.1191 166.885 12.1191ZM177.422 19.3457C176.198 18.61 175.586 17.4935 175.586 15.9961C175.586 15.2148 175.745 14.4824 176.064 13.7988C176.39 13.1087 176.833 12.513 177.393 12.0117C177.959 11.5104 178.617 11.0807 179.365 10.7227C180.863 10 182.578 9.63867 184.512 9.63867C188.314 9.63867 190.368 10.8431 190.674 13.252C191.13 13.4017 191.598 13.4766 192.08 13.4766C192.568 13.4766 192.975 13.4408 193.301 13.3691C193.626 13.2975 193.932 13.1901 194.219 13.0469C194.512 12.9036 194.72 12.832 194.844 12.832C195.091 12.832 195.215 12.9525 195.215 13.1934C195.215 13.4342 195.023 13.6849 194.639 13.9453C193.916 14.4401 192.959 14.6875 191.768 14.6875C191.318 14.6875 190.954 14.6647 190.674 14.6191C190.465 16.2598 189.619 17.6237 188.135 18.7109C187.425 19.2318 186.553 19.6419 185.518 19.9414C184.489 20.2409 183.421 20.3906 182.314 20.3906C181.214 20.3906 180.27 20.3027 179.482 20.127C178.695 19.9577 178.008 19.6973 177.422 19.3457ZM180.967 16.8555C180.967 18.0599 181.406 18.6621 182.285 18.6621C182.845 18.6621 183.366 18.3561 183.848 17.7441C184.336 17.1322 184.714 16.3737 184.98 15.4688C185.254 14.5638 185.391 13.6426 185.391 12.7051C185.391 11.7611 185.062 11.2891 184.404 11.2891C183.831 11.2891 183.275 11.5592 182.734 12.0996C182.201 12.64 181.771 13.3431 181.445 14.209C181.126 15.0684 180.967 15.9505 180.967 16.8555ZM195.4 9.95117L200.029 9.84375C200.199 9.84375 200.326 9.89583 200.41 10C200.495 10.0977 200.537 10.1888 200.537 10.2734C200.537 10.3581 200.514 10.498 200.469 10.6934C200.423 10.8887 200.365 11.1263 200.293 11.4062C200.221 11.6797 200.176 11.8555 200.156 11.9336C200.664 11.3281 201.299 10.7943 202.061 10.332C202.822 9.86979 203.493 9.63867 204.072 9.63867C205.303 9.63867 205.918 9.9056 205.918 10.4395C205.918 10.9668 205.752 11.6016 205.42 12.3438C205.088 13.0794 204.775 13.5645 204.482 13.7988C204.339 13.903 204.163 13.9551 203.955 13.9551C203.753 13.9551 203.564 13.89 203.389 13.7598C202.601 13.1738 201.742 12.8809 200.811 12.8809C200.452 12.8809 200.14 12.9069 199.873 12.959C199.619 13.8314 199.215 15.1139 198.662 16.8066C198.109 18.4928 197.803 19.4336 197.744 19.6289C197.646 19.9349 197.464 20.0879 197.197 20.0879C196.253 20.0879 195.241 20.1367 194.16 20.2344C193.079 20.3385 192.458 20.3906 192.295 20.3906C192.139 20.3906 192.015 20.3451 191.924 20.2539C191.839 20.1693 191.797 20.0684 191.797 19.9512C191.797 19.8275 191.934 19.3913 192.207 18.6426C192.487 17.8874 192.793 17.0768 193.125 16.2109C193.464 15.3451 193.77 14.3945 194.043 13.3594C194.323 12.3242 194.463 11.4746 194.463 10.8105L194.453 10.4395C194.453 10.1139 194.769 9.95117 195.4 9.95117ZM207.441 19.3457C206.217 18.61 205.605 17.4935 205.605 15.9961C205.605 15.2148 205.765 14.4824 206.084 13.7988C206.41 13.1087 206.852 12.513 207.412 12.0117C207.979 11.5104 208.636 11.0807 209.385 10.7227C210.882 10 212.598 9.63867 214.531 9.63867C218.333 9.63867 220.387 10.8431 220.693 13.252C221.149 13.4017 221.618 13.4766 222.1 13.4766C222.588 13.4766 222.995 13.4408 223.32 13.3691C223.646 13.2975 223.952 13.1901 224.238 13.0469C224.531 12.9036 224.74 12.832 224.863 12.832C225.111 12.832 225.234 12.9525 225.234 13.1934C225.234 13.4342 225.042 13.6849 224.658 13.9453C223.936 14.4401 222.979 14.6875 221.787 14.6875C221.338 14.6875 220.973 14.6647 220.693 14.6191C220.485 16.2598 219.639 17.6237 218.154 18.7109C217.445 19.2318 216.572 19.6419 215.537 19.9414C214.508 20.2409 213.441 20.3906 212.334 20.3906C211.234 20.3906 210.29 20.3027 209.502 20.127C208.714 19.9577 208.027 19.6973 207.441 19.3457ZM210.986 16.8555C210.986 18.0599 211.426 18.6621 212.305 18.6621C212.865 18.6621 213.385 18.3561 213.867 17.7441C214.355 17.1322 214.733 16.3737 215 15.4688C215.273 14.5638 215.41 13.6426 215.41 12.7051C215.41 11.7611 215.081 11.2891 214.424 11.2891C213.851 11.2891 213.294 11.5592 212.754 12.0996C212.22 12.64 211.79 13.3431 211.465 14.209C211.146 15.0684 210.986 15.9505 210.986 16.8555ZM224.551 15.3613C224.219 15.3613 224.053 15.1693 224.053 14.7852C224.053 14.2122 224.105 13.8477 224.209 13.6914C224.417 13.3984 224.684 13.2357 225.01 13.2031C225.342 13.1641 225.762 13.1445 226.27 13.1445L230.352 13.2324L233.809 13.1348C234.141 13.1348 234.307 13.3268 234.307 13.7109C234.307 14.2839 234.255 14.6484 234.15 14.8047C233.942 15.0977 233.672 15.2637 233.34 15.3027C233.014 15.3353 232.598 15.3516 232.09 15.3516L228.008 15.2637L224.551 15.3613ZM239.863 9.95117L244.492 9.84375C244.661 9.84375 244.788 9.89583 244.873 10C244.958 10.0977 245 10.2214 245 10.3711C245 10.5143 244.964 10.7487 244.893 11.0742C246.631 10.1172 248.145 9.63867 249.434 9.63867C249.993 9.63867 250.511 9.77865 250.986 10.0586C251.468 10.3385 251.781 10.752 251.924 11.2988C254.046 10.1921 255.804 9.63867 257.197 9.63867C257.809 9.63867 258.35 9.8112 258.818 10.1562C259.32 10.5339 259.57 11.0677 259.57 11.7578C259.57 12.4414 259.45 13.1641 259.209 13.9258C258.975 14.681 258.737 15.3874 258.496 16.0449C258.262 16.7025 258.145 17.168 258.145 17.4414C258.145 17.7083 258.213 17.9102 258.35 18.0469C258.486 18.1836 258.669 18.252 258.896 18.252C259.736 18.252 260.778 17.959 262.021 17.373C262.256 17.2689 262.435 17.2168 262.559 17.2168C262.852 17.2168 262.998 17.334 262.998 17.5684C262.998 17.7767 262.871 17.9753 262.617 18.1641C262.37 18.3464 262.008 18.5482 261.533 18.7695C261.058 18.9909 260.469 19.2285 259.766 19.4824C259.069 19.7363 258.249 19.9512 257.305 20.127C256.361 20.3027 255.518 20.3906 254.775 20.3906C254.04 20.3906 253.49 20.2669 253.125 20.0195C252.76 19.7721 252.578 19.4531 252.578 19.0625C252.578 18.6719 252.702 18.0859 252.949 17.3047C253.203 16.5234 253.457 15.752 253.711 14.9902C253.965 14.222 254.092 13.6654 254.092 13.3203C254.092 12.9688 254.007 12.7181 253.838 12.5684C253.669 12.4121 253.415 12.334 253.076 12.334C252.744 12.334 252.376 12.3861 251.973 12.4902C251.868 13.6035 251.436 15.2995 250.674 17.5781C250.355 18.5352 250.176 19.1341 250.137 19.375C250.098 19.6159 250.072 19.7559 250.059 19.7949C250.046 19.8275 250.023 19.873 249.99 19.9316C249.932 20.0358 249.808 20.0879 249.619 20.0879C248.682 20.0879 247.754 20.1042 246.836 20.1367C245.924 20.1758 245.335 20.1953 245.068 20.1953C244.808 20.1953 244.678 20.0423 244.678 19.7363C244.678 19.4303 244.779 18.9746 244.98 18.3691C245.182 17.7637 245.407 17.1615 245.654 16.5625C246.299 14.974 246.621 13.7891 246.621 13.0078C246.621 12.4284 246.243 12.1387 245.488 12.1387C245.169 12.1387 244.867 12.1908 244.58 12.2949C244.326 13.1608 243.887 14.5312 243.262 16.4062C242.643 18.2812 242.295 19.3359 242.217 19.5703C242.113 19.9154 241.927 20.0879 241.66 20.0879L236.641 20.1953C236.569 20.1953 236.488 20.1497 236.396 20.0586C236.312 19.974 236.27 19.873 236.27 19.7559C236.27 19.6322 236.406 19.2057 236.68 18.4766C236.96 17.7409 237.266 16.9531 237.598 16.1133C237.93 15.2669 238.232 14.3392 238.506 13.3301C238.786 12.3145 238.926 11.4746 238.926 10.8105L238.916 10.4395C238.916 10.1139 239.232 9.95117 239.863 9.95117ZM271.182 6.23047C271.182 6.92708 270.794 7.53581 270.02 8.05664C269.251 8.57096 268.438 8.82812 267.578 8.82812C266.725 8.82812 266.061 8.6556 265.586 8.31055C265.111 7.95898 264.873 7.53255 264.873 7.03125C264.873 6.52995 265.055 6.07422 265.42 5.66406C265.785 5.25391 266.257 4.93164 266.836 4.69727C267.422 4.46289 268.057 4.3457 268.74 4.3457C269.424 4.3457 270 4.52799 270.469 4.89258C270.944 5.25065 271.182 5.69661 271.182 6.23047ZM268.438 18.3496C268.88 18.3496 269.479 18.2454 270.234 18.0371C270.996 17.8223 271.549 17.6335 271.895 17.4707C272.24 17.3014 272.48 17.2168 272.617 17.2168C272.891 17.2168 273.027 17.3535 273.027 17.627C273.027 17.7507 272.926 17.8906 272.725 18.0469C272.061 18.5417 270.866 19.056 269.141 19.5898C267.415 20.1237 265.876 20.3906 264.521 20.3906C263.682 20.3906 262.979 20.2572 262.412 19.9902C261.846 19.7233 261.562 19.3164 261.562 18.7695C261.562 18.4375 261.846 17.6237 262.412 16.3281C263.48 13.8737 264.014 12.0247 264.014 10.7812L264.004 10.4102C264.004 10.0846 264.32 9.92188 264.951 9.92188L269.775 9.81445C269.945 9.81445 270.072 9.86654 270.156 9.9707C270.241 10.0684 270.283 10.179 270.283 10.3027C270.283 10.752 270.078 11.4941 269.668 12.5293C269.258 13.5579 268.848 14.5703 268.438 15.5664C268.027 16.5625 267.822 17.2754 267.822 17.7051C267.822 18.1348 268.027 18.3496 268.438 18.3496ZM274.893 9.95117L279.521 9.84375C279.691 9.84375 279.818 9.89583 279.902 10C279.987 10.0977 280.029 10.1888 280.029 10.2734C280.029 10.3581 280.007 10.498 279.961 10.6934C279.915 10.8887 279.857 11.1263 279.785 11.4062C279.714 11.6797 279.668 11.8555 279.648 11.9336C280.156 11.3281 280.791 10.7943 281.553 10.332C282.314 9.86979 282.985 9.63867 283.564 9.63867C284.795 9.63867 285.41 9.9056 285.41 10.4395C285.41 10.9668 285.244 11.6016 284.912 12.3438C284.58 13.0794 284.268 13.5645 283.975 13.7988C283.831 13.903 283.656 13.9551 283.447 13.9551C283.245 13.9551 283.057 13.89 282.881 13.7598C282.093 13.1738 281.234 12.8809 280.303 12.8809C279.945 12.8809 279.632 12.9069 279.365 12.959C279.111 13.8314 278.708 15.1139 278.154 16.8066C277.601 18.4928 277.295 19.4336 277.236 19.6289C277.139 19.9349 276.956 20.0879 276.689 20.0879C275.745 20.0879 274.733 20.1367 273.652 20.2344C272.572 20.3385 271.95 20.3906 271.787 20.3906C271.631 20.3906 271.507 20.3451 271.416 20.2539C271.331 20.1693 271.289 20.0684 271.289 19.9512C271.289 19.8275 271.426 19.3913 271.699 18.6426C271.979 17.8874 272.285 17.0768 272.617 16.2109C272.956 15.3451 273.262 14.3945 273.535 13.3594C273.815 12.3242 273.955 11.4746 273.955 10.8105L273.945 10.4395C273.945 10.1139 274.261 9.95117 274.893 9.95117ZM292.168 17.9102C293.392 17.9102 294.414 16.9727 295.234 15.0977C295.612 14.2383 295.801 13.5417 295.801 13.0078C295.801 12.474 295.71 12.1061 295.527 11.9043C295.352 11.7025 295 11.6016 294.473 11.6016C293.952 11.6016 293.385 11.8457 292.773 12.334C292.168 12.8158 291.68 13.4245 291.309 14.1602C290.938 14.8958 290.752 15.5599 290.752 16.1523C290.752 16.7383 290.882 17.1777 291.143 17.4707C291.403 17.7637 291.745 17.9102 292.168 17.9102ZM297.246 9.63867L301.719 9.84375C301.888 9.84375 302.015 9.89583 302.1 10C302.184 10.0977 302.227 10.2083 302.227 10.332C302.227 10.8073 302.028 11.5658 301.631 12.6074C301.24 13.6426 300.846 14.6712 300.449 15.6934C300.059 16.709 299.863 17.3828 299.863 17.7148C299.863 18.0404 299.912 18.2487 300.01 18.3398C300.114 18.431 300.309 18.4766 300.596 18.4766C300.882 18.4766 301.403 18.3398 302.158 18.0664C302.92 17.7865 303.434 17.5749 303.701 17.4316C303.975 17.2884 304.183 17.2168 304.326 17.2168C304.58 17.2168 304.707 17.3307 304.707 17.5586C304.707 18.0404 303.73 18.6719 301.777 19.4531C301.12 19.7201 300.326 19.9414 299.395 20.1172C298.47 20.2995 297.529 20.3906 296.572 20.3906C294.977 20.3906 294.017 19.8828 293.691 18.8672C292.676 19.8828 291.309 20.3906 289.59 20.3906C288.411 20.3906 287.415 20.1074 286.602 19.541C285.716 18.9225 285.273 17.9492 285.273 16.6211C285.273 15.2214 285.687 13.9323 286.514 12.7539C287.419 11.4453 288.63 10.5436 290.146 10.0488C290.986 9.77539 291.888 9.63867 292.852 9.63867C294.329 9.63867 295.479 10.0033 296.299 10.7324C296.305 10.6934 296.309 10.6315 296.309 10.5469L296.299 10.127C296.299 9.80143 296.615 9.63867 297.246 9.63867ZM312.9 6.23047C312.9 6.92708 312.513 7.53581 311.738 8.05664C310.97 8.57096 310.156 8.82812 309.297 8.82812C308.444 8.82812 307.78 8.6556 307.305 8.31055C306.829 7.95898 306.592 7.53255 306.592 7.03125C306.592 6.52995 306.774 6.07422 307.139 5.66406C307.503 5.25391 307.975 4.93164 308.555 4.69727C309.141 4.46289 309.775 4.3457 310.459 4.3457C311.143 4.3457 311.719 4.52799 312.188 4.89258C312.663 5.25065 312.9 5.69661 312.9 6.23047ZM310.156 18.3496C310.599 18.3496 311.198 18.2454 311.953 18.0371C312.715 17.8223 313.268 17.6335 313.613 17.4707C313.958 17.3014 314.199 17.2168 314.336 17.2168C314.609 17.2168 314.746 17.3535 314.746 17.627C314.746 17.7507 314.645 17.8906 314.443 18.0469C313.779 18.5417 312.585 19.056 310.859 19.5898C309.134 20.1237 307.594 20.3906 306.24 20.3906C305.4 20.3906 304.697 20.2572 304.131 19.9902C303.564 19.7233 303.281 19.3164 303.281 18.7695C303.281 18.4375 303.564 17.6237 304.131 16.3281C305.199 13.8737 305.732 12.0247 305.732 10.7812L305.723 10.4102C305.723 10.0846 306.038 9.92188 306.67 9.92188L311.494 9.81445C311.663 9.81445 311.79 9.86654 311.875 9.9707C311.96 10.0684 312.002 10.179 312.002 10.3027C312.002 10.752 311.797 11.4941 311.387 12.5293C310.977 13.5579 310.566 14.5703 310.156 15.5664C309.746 16.5625 309.541 17.2754 309.541 17.7051C309.541 18.1348 309.746 18.3496 310.156 18.3496ZM321.006 19.1699C320.628 19.5931 320.13 19.9284 319.512 20.1758C318.9 20.4232 318.229 20.5469 317.5 20.5469C316.777 20.5469 316.165 20.3613 315.664 19.9902C315.163 19.6191 314.912 19.1699 314.912 18.6426C314.912 18.1152 315.104 17.6367 315.488 17.207C315.879 16.7708 316.38 16.429 316.992 16.1816C317.604 15.9342 318.271 15.8105 318.994 15.8105C319.723 15.8105 320.335 16.0026 320.83 16.3867C321.331 16.7643 321.582 17.2168 321.582 17.7441C321.582 18.265 321.39 18.7402 321.006 19.1699ZM336.113 20.3906C333.945 20.3906 332.861 19.6712 332.861 18.2324C332.861 17.4121 333.379 15.7747 334.414 13.3203C335.449 10.8594 335.967 9.15365 335.967 8.20312C335.967 7.66927 335.768 7.29167 335.371 7.07031C334.98 6.84245 334.411 6.72852 333.662 6.72852C332.92 6.72852 332.165 6.79362 331.396 6.92383C330.628 7.05404 330.133 7.11914 329.912 7.11914C329.697 7.11914 329.59 7.02148 329.59 6.82617C329.59 6.57227 330.049 6.23698 330.967 5.82031C332.731 5.01302 334.674 4.60938 336.797 4.60938C338.477 4.60938 339.733 4.91211 340.566 5.51758C341.406 6.12305 341.826 7.10612 341.826 8.4668C341.826 9.27409 341.683 10.2865 341.396 11.5039C341.11 12.7148 340.824 13.8542 340.537 14.9219C340.257 15.9896 340.117 16.722 340.117 17.1191C340.117 17.5163 340.192 17.793 340.342 17.9492C340.531 18.1445 340.895 18.2422 341.436 18.2422C341.768 18.2422 341.953 18.278 341.992 18.3496C342.038 18.4212 342.061 18.4961 342.061 18.5742C342.061 18.8737 341.924 19.1178 341.65 19.3066C340.615 20.0293 338.77 20.3906 336.113 20.3906ZM330.43 13.3203L332.93 13.2617C333.385 13.2617 333.613 13.3952 333.613 13.6621C333.613 13.8509 333.506 14.0007 333.291 14.1113C332.536 14.4954 331.234 14.7396 329.385 14.8438C328.857 15.8854 328.594 16.8001 328.594 17.5879C328.594 17.9395 328.639 18.265 328.73 18.5645C328.822 18.8574 328.867 19.069 328.867 19.1992C328.867 19.5443 328.649 19.7786 328.213 19.9023C327.777 20.0195 327.135 20.0781 326.289 20.0781C325.449 20.0781 324.896 20.0033 324.629 19.8535C324.362 19.6973 324.229 19.4238 324.229 19.0332C324.229 18.304 324.44 17.5 324.863 16.6211C325.293 15.7422 325.84 14.9023 326.504 14.1016C327.168 13.2943 327.904 12.5033 328.711 11.7285C329.518 10.9538 330.303 10.2865 331.064 9.72656C332.757 8.47005 333.91 7.8418 334.521 7.8418C334.801 7.8418 334.941 7.92643 334.941 8.0957C334.941 8.26497 334.805 8.45378 334.531 8.66211C333.952 9.08529 333.258 9.72982 332.451 10.5957C331.644 11.4616 330.924 12.3698 330.293 13.3203H330.43ZM348.115 5.61523L352.9 5.50781C353.07 5.50781 353.197 5.5599 353.281 5.66406C353.366 5.76172 353.408 5.8724 353.408 5.99609C353.408 6.67969 352.783 8.65234 351.533 11.9141C350.29 15.1758 349.668 17.0964 349.668 17.6758C349.668 17.9167 349.717 18.099 349.814 18.2227C349.912 18.3398 350.085 18.3984 350.332 18.3984C351.107 18.3984 352.308 18.0404 353.936 17.3242C354.098 17.2526 354.255 17.2168 354.404 17.2168C354.671 17.2168 354.805 17.321 354.805 17.5293C354.805 17.7051 354.671 17.8874 354.404 18.0762C354.137 18.265 353.77 18.4733 353.301 18.7012C352.832 18.929 352.262 19.1764 351.592 19.4434C350.921 19.7103 350.16 19.9349 349.307 20.1172C348.46 20.2995 347.572 20.3906 346.641 20.3906C345.71 20.3906 344.964 20.2637 344.404 20.0098C343.844 19.7624 343.564 19.3034 343.564 18.6328C343.564 18.1641 344.167 16.3249 345.371 13.1152C345.82 11.9173 346.234 10.6738 346.611 9.38477C346.989 8.08919 347.178 7.11914 347.178 6.47461L347.168 6.10352C347.168 5.77799 347.484 5.61523 348.115 5.61523ZM358.115 5.61523L362.9 5.50781C363.07 5.50781 363.197 5.5599 363.281 5.66406C363.366 5.76172 363.408 5.8724 363.408 5.99609C363.408 6.67969 362.783 8.65234 361.533 11.9141C360.29 15.1758 359.668 17.0964 359.668 17.6758C359.668 17.9167 359.717 18.099 359.814 18.2227C359.912 18.3398 360.085 18.3984 360.332 18.3984C361.107 18.3984 362.308 18.0404 363.936 17.3242C364.098 17.2526 364.255 17.2168 364.404 17.2168C364.671 17.2168 364.805 17.321 364.805 17.5293C364.805 17.7051 364.671 17.8874 364.404 18.0762C364.137 18.265 363.77 18.4733 363.301 18.7012C362.832 18.929 362.262 19.1764 361.592 19.4434C360.921 19.7103 360.16 19.9349 359.307 20.1172C358.46 20.2995 357.572 20.3906 356.641 20.3906C355.71 20.3906 354.964 20.2637 354.404 20.0098C353.844 19.7624 353.564 19.3034 353.564 18.6328C353.564 18.1641 354.167 16.3249 355.371 13.1152C355.82 11.9173 356.234 10.6738 356.611 9.38477C356.989 8.08919 357.178 7.11914 357.178 6.47461L357.168 6.10352C357.168 5.77799 357.484 5.61523 358.115 5.61523ZM380.156 13.9062L379.678 13.916C379.248 15.166 378.896 16.25 378.623 17.168C378.35 18.0794 378.128 18.6751 377.959 18.9551C377.796 19.2285 377.617 19.4499 377.422 19.6191C377.233 19.7819 376.989 19.9056 376.689 19.9902C376.195 20.127 375.524 20.1953 374.678 20.1953C373.831 20.1953 373.018 20.1009 372.236 19.9121C371.462 19.7233 370.843 19.4922 370.381 19.2188C369.919 18.9388 369.688 18.6686 369.688 18.4082C369.688 18.2585 369.753 18.1413 369.883 18.0566C370.007 17.9655 370.153 17.9199 370.322 17.9199C370.921 17.9199 371.361 17.8255 371.641 17.6367C371.927 17.4414 372.197 17.0866 372.451 16.5723C372.705 16.0579 372.956 15.4622 373.203 14.7852C373.457 14.1081 373.691 13.4798 373.906 12.9004C374.128 12.321 374.382 11.7285 374.668 11.123C375.28 9.82096 376.038 8.95182 376.943 8.51562C377.38 8.30729 377.959 8.14779 378.682 8.03711C379.404 7.91992 379.967 7.86133 380.371 7.86133C380.775 7.86133 381.038 7.86784 381.162 7.88086C381.286 7.88737 381.41 7.9069 381.533 7.93945C381.787 8.00456 381.914 8.14779 381.914 8.36914C381.914 8.50586 381.888 8.63281 381.836 8.75C381.784 8.86719 381.624 9.15039 381.357 9.59961C381.097 10.0423 380.648 11.1621 380.01 12.959C383.467 12.5553 385.195 11.2923 385.195 9.16992C385.195 8.45378 384.971 7.91667 384.521 7.55859C384.059 7.20052 383.59 6.98242 383.115 6.9043C382.406 6.78711 381.624 6.72852 380.771 6.72852C379.925 6.72852 379.04 6.8099 378.115 6.97266C377.191 7.12891 376.471 7.30469 375.957 7.5C375.449 7.6888 374.993 7.86458 374.59 8.02734C374.193 8.18359 373.939 8.26172 373.828 8.26172C373.483 8.26172 373.311 8.14779 373.311 7.91992C373.311 7.63346 373.496 7.37305 373.867 7.13867C375.156 6.31185 376.631 5.68359 378.291 5.25391C379.951 4.82422 382.031 4.60938 384.531 4.60938C385.814 4.60938 386.885 4.74284 387.744 5.00977C388.604 5.27018 389.261 5.54688 389.717 5.83984C390.179 6.1263 390.557 6.50716 390.85 6.98242C391.143 7.45768 391.289 7.97852 391.289 8.54492C391.289 9.11133 391.182 9.61263 390.967 10.0488C390.752 10.4785 390.456 10.8496 390.078 11.1621C389.707 11.4681 389.235 11.7448 388.662 11.9922C387.673 12.4154 386.335 12.7604 384.648 13.0273C385.938 13.0273 386.956 13.2487 387.705 13.6914C388.454 14.1341 388.828 14.7591 388.828 15.5664L388.652 17.3047C388.652 17.7734 388.89 18.0404 389.365 18.1055C389.567 18.138 389.769 18.1641 389.971 18.1836C390.446 18.2227 390.684 18.4049 390.684 18.7305C390.684 19.1732 390.13 19.5605 389.023 19.8926C387.923 20.2246 386.715 20.3906 385.4 20.3906C382.92 20.3906 381.68 19.6647 381.68 18.2129C381.68 17.8613 381.787 17.36 382.002 16.709C382.217 16.0579 382.324 15.6217 382.324 15.4004C382.324 14.9902 382.155 14.6387 381.816 14.3457C381.478 14.0527 380.924 13.9062 380.156 13.9062ZM402.197 6.23047C402.197 6.92708 401.81 7.53581 401.035 8.05664C400.267 8.57096 399.453 8.82812 398.594 8.82812C397.741 8.82812 397.077 8.6556 396.602 8.31055C396.126 7.95898 395.889 7.53255 395.889 7.03125C395.889 6.52995 396.071 6.07422 396.436 5.66406C396.8 5.25391 397.272 4.93164 397.852 4.69727C398.438 4.46289 399.072 4.3457 399.756 4.3457C400.439 4.3457 401.016 4.52799 401.484 4.89258C401.96 5.25065 402.197 5.69661 402.197 6.23047ZM399.453 18.3496C399.896 18.3496 400.495 18.2454 401.25 18.0371C402.012 17.8223 402.565 17.6335 402.91 17.4707C403.255 17.3014 403.496 17.2168 403.633 17.2168C403.906 17.2168 404.043 17.3535 404.043 17.627C404.043 17.7507 403.942 17.8906 403.74 18.0469C403.076 18.5417 401.882 19.056 400.156 19.5898C398.431 20.1237 396.891 20.3906 395.537 20.3906C394.697 20.3906 393.994 20.2572 393.428 19.9902C392.861 19.7233 392.578 19.3164 392.578 18.7695C392.578 18.4375 392.861 17.6237 393.428 16.3281C394.495 13.8737 395.029 12.0247 395.029 10.7812L395.02 10.4102C395.02 10.0846 395.335 9.92188 395.967 9.92188L400.791 9.81445C400.96 9.81445 401.087 9.86654 401.172 9.9707C401.257 10.0684 401.299 10.179 401.299 10.3027C401.299 10.752 401.094 11.4941 400.684 12.5293C400.273 13.5579 399.863 14.5703 399.453 15.5664C399.043 16.5625 398.838 17.2754 398.838 17.7051C398.838 18.1348 399.043 18.3496 399.453 18.3496ZM402.432 23.3203C402.432 22.9232 402.744 22.5391 403.369 22.168C404.001 21.7969 404.814 21.4746 405.811 21.2012C407.614 20.7064 409.492 20.3255 411.445 20.0586C411.673 19.4206 411.885 18.8118 412.08 18.2324C411.383 18.7467 410.602 19.1504 409.736 19.4434C408.87 19.7363 408.086 19.8828 407.383 19.8828C406.68 19.8828 406.087 19.8242 405.605 19.707C405.124 19.5833 404.678 19.3913 404.268 19.1309C403.389 18.571 402.949 17.6497 402.949 16.3672C402.949 15.0781 403.294 13.9193 403.984 12.8906C404.674 11.862 405.609 11.0645 406.787 10.498C407.972 9.92513 409.313 9.63867 410.811 9.63867C412.308 9.63867 413.467 9.96419 414.287 10.6152C414.88 10.4329 415.566 10.2734 416.348 10.1367C417.135 9.99349 417.751 9.92188 418.193 9.92188C418.643 9.92188 419.02 10.0293 419.326 10.2441C419.639 10.459 419.795 10.7064 419.795 10.9863C419.795 11.2598 419.697 11.6764 419.502 12.2363C419.313 12.7962 418.984 13.7305 418.516 15.0391C418.047 16.3477 417.601 17.6628 417.178 18.9844C418.493 18.6263 419.893 18.0957 421.377 17.3926C421.624 17.2754 421.816 17.2168 421.953 17.2168C422.24 17.2168 422.383 17.3307 422.383 17.5586C422.383 17.7344 422.266 17.9069 422.031 18.0762C420.957 18.8835 419.202 19.6257 416.768 20.3027L416.504 21.1719C416.322 21.7839 415.99 22.3242 415.508 22.793C415.026 23.2682 414.476 23.6458 413.857 23.9258C413.239 24.2057 412.529 24.4336 411.729 24.6094C410.335 24.9219 408.763 25.0781 407.012 25.0781C403.958 25.0781 402.432 24.4922 402.432 23.3203ZM411.699 17.0215C412.207 16.6113 412.65 15.9733 413.027 15.1074C413.411 14.2415 413.604 13.5417 413.604 13.0078C413.604 12.474 413.512 12.1061 413.33 11.9043C413.154 11.7025 412.803 11.6016 412.275 11.6016C411.755 11.6016 411.178 11.8294 410.547 12.2852C409.922 12.7344 409.411 13.3105 409.014 14.0137C408.623 14.7168 408.428 15.3613 408.428 15.9473C408.428 16.5332 408.555 16.9596 408.809 17.2266C409.069 17.487 409.355 17.6172 409.668 17.6172C409.987 17.6172 410.225 17.6074 410.381 17.5879C410.544 17.5684 410.752 17.513 411.006 17.4219C411.26 17.3242 411.491 17.1908 411.699 17.0215ZM410.586 22.4707L411.045 21.1719C408.135 21.6341 406.68 22.2949 406.68 23.1543C406.68 23.4082 406.8 23.61 407.041 23.7598C407.288 23.916 407.598 23.9941 407.969 23.9941C409.355 23.9941 410.228 23.4863 410.586 22.4707ZM425.596 5.53711L430.068 5.50781C430.218 5.50781 430.339 5.55664 430.43 5.6543C430.527 5.74544 430.576 5.89844 430.576 6.11328C430.576 6.32812 430.443 6.95964 430.176 8.00781C429.909 9.04948 429.609 10.0716 429.277 11.0742C430.13 10.7096 431.074 10.3809 432.109 10.0879C433.145 9.78841 434.076 9.63867 434.902 9.63867C435.527 9.63867 436.097 9.8112 436.611 10.1562C437.184 10.5404 437.471 11.123 437.471 11.9043C437.471 12.679 437.168 13.724 436.562 15.0391C435.957 16.3542 435.654 17.194 435.654 17.5586C435.654 18.0924 435.911 18.3594 436.426 18.3594C437.441 18.3594 438.59 18.0306 439.873 17.373C440.068 17.2689 440.228 17.2168 440.352 17.2168C440.618 17.2168 440.752 17.3372 440.752 17.5781C440.752 17.8125 440.602 18.0241 440.303 18.2129C440.01 18.3952 439.639 18.5938 439.189 18.8086C438.74 19.0169 438.177 19.248 437.5 19.502C435.918 20.0944 434.229 20.3906 432.432 20.3906C430.635 20.3906 429.736 19.9479 429.736 19.0625C429.736 18.4896 430.062 17.4674 430.713 15.9961C431.37 14.5182 431.699 13.5221 431.699 13.0078C431.699 12.3893 431.247 12.0801 430.342 12.0801C429.84 12.0801 429.346 12.1582 428.857 12.3145C427.783 15.4655 427.012 17.9362 426.543 19.7266C426.51 19.8503 426.436 19.9414 426.318 20C426.208 20.0586 426.11 20.0879 426.025 20.0879L420.996 20.1953C420.924 20.1953 420.843 20.1497 420.752 20.0586C420.667 19.974 420.625 19.8665 420.625 19.7363C420.625 19.6061 420.833 18.9518 421.25 17.7734C421.673 16.5951 422.135 15.3158 422.637 13.9355C423.145 12.5553 423.607 11.1198 424.023 9.62891C424.447 8.13802 424.658 7.02799 424.658 6.29883L424.648 6.02539C424.648 5.69987 424.964 5.53711 425.596 5.53711ZM448.564 10.0586L451.133 9.72656C451.615 9.72656 451.855 9.91536 451.855 10.293C451.855 10.6706 451.628 10.9082 451.172 11.0059C450.716 11.097 449.688 11.2207 448.086 11.377C447.865 11.9564 447.533 12.7604 447.09 13.7891C446.185 15.8984 445.732 17.1647 445.732 17.5879C445.732 18.0501 446.019 18.2812 446.592 18.2812C448.441 18.2812 450.101 17.972 451.572 17.3535C451.787 17.2624 451.956 17.2168 452.08 17.2168C452.321 17.2168 452.441 17.3242 452.441 17.5391C452.441 17.7539 452.285 17.9655 451.973 18.1738C451.016 18.8053 449.574 19.3327 447.646 19.7559C445.719 20.179 443.942 20.3906 442.314 20.3906C441.39 20.3906 440.684 20.2474 440.195 19.9609C439.707 19.668 439.463 19.2676 439.463 18.7598C439.463 18.2454 439.801 17.2852 440.479 15.8789C441.24 14.3034 441.787 12.9199 442.119 11.7285C441.715 11.748 441.436 11.7578 441.279 11.7578C440.895 11.7578 440.703 11.6016 440.703 11.2891C440.703 11.0612 440.765 10.9082 440.889 10.8301C441.012 10.752 441.139 10.6966 441.27 10.6641C441.406 10.6315 441.52 10.612 441.611 10.6055C441.709 10.5924 441.842 10.5794 442.012 10.5664C442.181 10.5534 442.305 10.5436 442.383 10.5371C442.467 10.0423 442.51 9.57682 442.51 9.14062L442.5 8.76953C442.5 8.47656 442.871 8.27799 443.613 8.17383C443.861 8.14128 444.639 7.97852 445.947 7.68555C447.256 7.39258 448.057 7.24609 448.35 7.24609C448.818 7.24609 449.053 7.40885 449.053 7.73438C449.053 8.29427 448.89 9.06901 448.564 10.0586ZM457.646 20.3809C457.484 20.3874 457.243 20.3906 456.924 20.3906C455.426 20.3906 454.014 20.2507 452.686 19.9707C451.364 19.6908 450.583 19.3652 450.342 18.9941C450.264 18.877 450.225 18.7305 450.225 18.5547C450.225 18.3789 450.433 18.099 450.85 17.7148C451.266 17.3242 451.553 17.1289 451.709 17.1289C451.865 17.1289 452.025 17.1875 452.188 17.3047C452.357 17.4154 452.542 17.5521 452.744 17.7148C452.946 17.8776 453.171 18.0404 453.418 18.2031C454.01 18.5938 454.723 18.7891 455.557 18.7891C455.889 18.7891 456.156 18.7044 456.357 18.5352C456.566 18.3659 456.67 18.1543 456.67 17.9004C456.67 17.64 456.582 17.4154 456.406 17.2266C456.237 17.0378 456.012 16.875 455.732 16.7383C455.459 16.5951 455.156 16.4551 454.824 16.3184C454.492 16.1751 454.157 16.0221 453.818 15.8594C453.486 15.6901 453.18 15.5078 452.9 15.3125C452.282 14.8763 451.973 14.3359 451.973 13.6914C451.973 13.0404 452.168 12.4772 452.559 12.002C452.956 11.5267 453.454 11.1458 454.053 10.8594C454.652 10.5729 455.329 10.332 456.084 10.1367C457.412 9.80469 458.665 9.63867 459.844 9.63867C461.029 9.63867 462.129 9.70052 463.145 9.82422C464.167 9.94141 464.87 10.1172 465.254 10.3516C465.358 10.4102 465.41 10.5664 465.41 10.8203C465.41 11.0677 465.322 11.4258 465.146 11.8945C464.971 12.3568 464.746 12.7865 464.473 13.1836C464.206 13.5742 463.965 13.7695 463.75 13.7695C463.665 13.7695 463.594 13.7337 463.535 13.6621C462.917 12.9199 462.314 12.3503 461.729 11.9531C461.149 11.5495 460.518 11.3477 459.834 11.3477C459.313 11.3477 458.939 11.4551 458.711 11.6699C458.49 11.8783 458.379 12.0964 458.379 12.3242C458.379 12.5521 458.503 12.7702 458.75 12.9785C459.004 13.1868 459.316 13.3757 459.688 13.5449C460.065 13.7142 460.472 13.9128 460.908 14.1406C461.351 14.362 461.758 14.5898 462.129 14.8242C462.507 15.0521 462.819 15.3418 463.066 15.6934C463.32 16.0384 463.447 16.4746 463.447 17.002C463.447 17.5293 463.255 18.0436 462.871 18.5449C464.486 18.2194 465.749 17.819 466.66 17.3438C466.816 17.2591 466.95 17.2168 467.061 17.2168C467.308 17.2168 467.432 17.3405 467.432 17.5879C467.432 17.7962 467.305 17.9883 467.051 18.1641C466.797 18.3333 466.377 18.5417 465.791 18.7891C465.205 19.0299 464.508 19.2741 463.701 19.5215C461.82 20.0944 459.801 20.3809 457.646 20.3809ZM482.773 13.9062L482.295 13.916C481.865 15.166 481.514 16.25 481.24 17.168C480.967 18.0794 480.745 18.6751 480.576 18.9551C480.413 19.2285 480.234 19.4499 480.039 19.6191C479.85 19.7819 479.606 19.9056 479.307 19.9902C478.812 20.127 478.141 20.1953 477.295 20.1953C476.449 20.1953 475.635 20.1009 474.854 19.9121C474.079 19.7233 473.46 19.4922 472.998 19.2188C472.536 18.9388 472.305 18.6686 472.305 18.4082C472.305 18.2585 472.37 18.1413 472.5 18.0566C472.624 17.9655 472.77 17.9199 472.939 17.9199C473.538 17.9199 473.978 17.8255 474.258 17.6367C474.544 17.4414 474.814 17.0866 475.068 16.5723C475.322 16.0579 475.573 15.4622 475.82 14.7852C476.074 14.1081 476.309 13.4798 476.523 12.9004C476.745 12.321 476.999 11.7285 477.285 11.123C477.897 9.82096 478.656 8.95182 479.561 8.51562C479.997 8.30729 480.576 8.14779 481.299 8.03711C482.021 7.91992 482.585 7.86133 482.988 7.86133C483.392 7.86133 483.656 7.86784 483.779 7.88086C483.903 7.88737 484.027 7.9069 484.15 7.93945C484.404 8.00456 484.531 8.14779 484.531 8.36914C484.531 8.50586 484.505 8.63281 484.453 8.75C484.401 8.86719 484.242 9.15039 483.975 9.59961C483.714 10.0423 483.265 11.1621 482.627 12.959C486.084 12.5553 487.812 11.2923 487.812 9.16992C487.812 8.45378 487.588 7.91667 487.139 7.55859C486.676 7.20052 486.208 6.98242 485.732 6.9043C485.023 6.78711 484.242 6.72852 483.389 6.72852C482.542 6.72852 481.657 6.8099 480.732 6.97266C479.808 7.12891 479.089 7.30469 478.574 7.5C478.066 7.6888 477.611 7.86458 477.207 8.02734C476.81 8.18359 476.556 8.26172 476.445 8.26172C476.1 8.26172 475.928 8.14779 475.928 7.91992C475.928 7.63346 476.113 7.37305 476.484 7.13867C477.773 6.31185 479.248 5.68359 480.908 5.25391C482.568 4.82422 484.648 4.60938 487.148 4.60938C488.431 4.60938 489.502 4.74284 490.361 5.00977C491.221 5.27018 491.878 5.54688 492.334 5.83984C492.796 6.1263 493.174 6.50716 493.467 6.98242C493.76 7.45768 493.906 7.97852 493.906 8.54492C493.906 9.11133 493.799 9.61263 493.584 10.0488C493.369 10.4785 493.073 10.8496 492.695 11.1621C492.324 11.4681 491.852 11.7448 491.279 11.9922C490.29 12.4154 488.952 12.7604 487.266 13.0273C488.555 13.0273 489.574 13.2487 490.322 13.6914C491.071 14.1341 491.445 14.7591 491.445 15.5664L491.27 17.3047C491.27 17.7734 491.507 18.0404 491.982 18.1055C492.184 18.138 492.386 18.1641 492.588 18.1836C493.063 18.2227 493.301 18.4049 493.301 18.7305C493.301 19.1732 492.747 19.5605 491.641 19.8926C490.54 20.2246 489.333 20.3906 488.018 20.3906C485.537 20.3906 484.297 19.6647 484.297 18.2129C484.297 17.8613 484.404 17.36 484.619 16.709C484.834 16.0579 484.941 15.6217 484.941 15.4004C484.941 14.9902 484.772 14.6387 484.434 14.3457C484.095 14.0527 483.542 13.9062 482.773 13.9062ZM511.299 17.2168C511.527 17.2168 511.641 17.3242 511.641 17.5391C511.641 17.7474 511.484 17.9427 511.172 18.125C510.866 18.3008 510.485 18.4928 510.029 18.7012C509.574 18.903 508.945 19.1439 508.145 19.4238C506.302 20.0684 504.222 20.3906 501.904 20.3906C497.503 20.3906 495.303 19.0365 495.303 16.3281C495.303 15.0065 495.719 13.8346 496.553 12.8125C497.393 11.7839 498.516 10.9993 499.922 10.459C501.328 9.91211 502.861 9.63867 504.521 9.63867C506.182 9.63867 507.396 9.89583 508.164 10.4102C508.939 10.9245 509.326 11.6309 509.326 12.5293C509.326 13.4538 508.955 14.209 508.213 14.7949C507.477 15.3809 506.497 15.8171 505.273 16.1035C504.043 16.39 502.633 16.5918 501.045 16.709C501.149 17.7181 501.872 18.3464 503.213 18.5938C503.558 18.6523 503.923 18.6816 504.307 18.6816C505.83 18.6816 508.027 18.2227 510.898 17.3047C511.074 17.2461 511.208 17.2168 511.299 17.2168ZM501.055 15.6348C502.188 15.3223 503.083 14.8438 503.74 14.1992C504.398 13.5547 504.727 12.7767 504.727 11.8652C504.727 11.6243 504.648 11.4323 504.492 11.2891C504.336 11.1458 504.098 11.0742 503.779 11.0742C503.467 11.0742 503.138 11.2109 502.793 11.4844C502.454 11.7578 502.168 12.1159 501.934 12.5586C501.439 13.4766 501.146 14.502 501.055 15.6348ZM516.846 20.3809C516.683 20.3874 516.442 20.3906 516.123 20.3906C514.626 20.3906 513.213 20.2507 511.885 19.9707C510.563 19.6908 509.782 19.3652 509.541 18.9941C509.463 18.877 509.424 18.7305 509.424 18.5547C509.424 18.3789 509.632 18.099 510.049 17.7148C510.465 17.3242 510.752 17.1289 510.908 17.1289C511.064 17.1289 511.224 17.1875 511.387 17.3047C511.556 17.4154 511.742 17.5521 511.943 17.7148C512.145 17.8776 512.37 18.0404 512.617 18.2031C513.21 18.5938 513.923 18.7891 514.756 18.7891C515.088 18.7891 515.355 18.7044 515.557 18.5352C515.765 18.3659 515.869 18.1543 515.869 17.9004C515.869 17.64 515.781 17.4154 515.605 17.2266C515.436 17.0378 515.212 16.875 514.932 16.7383C514.658 16.5951 514.355 16.4551 514.023 16.3184C513.691 16.1751 513.356 16.0221 513.018 15.8594C512.686 15.6901 512.38 15.5078 512.1 15.3125C511.481 14.8763 511.172 14.3359 511.172 13.6914C511.172 13.0404 511.367 12.4772 511.758 12.002C512.155 11.5267 512.653 11.1458 513.252 10.8594C513.851 10.5729 514.528 10.332 515.283 10.1367C516.611 9.80469 517.865 9.63867 519.043 9.63867C520.228 9.63867 521.328 9.70052 522.344 9.82422C523.366 9.94141 524.069 10.1172 524.453 10.3516C524.557 10.4102 524.609 10.5664 524.609 10.8203C524.609 11.0677 524.521 11.4258 524.346 11.8945C524.17 12.3568 523.945 12.7865 523.672 13.1836C523.405 13.5742 523.164 13.7695 522.949 13.7695C522.865 13.7695 522.793 13.7337 522.734 13.6621C522.116 12.9199 521.514 12.3503 520.928 11.9531C520.348 11.5495 519.717 11.3477 519.033 11.3477C518.512 11.3477 518.138 11.4551 517.91 11.6699C517.689 11.8783 517.578 12.0964 517.578 12.3242C517.578 12.5521 517.702 12.7702 517.949 12.9785C518.203 13.1868 518.516 13.3757 518.887 13.5449C519.264 13.7142 519.671 13.9128 520.107 14.1406C520.55 14.362 520.957 14.5898 521.328 14.8242C521.706 15.0521 522.018 15.3418 522.266 15.6934C522.52 16.0384 522.646 16.4746 522.646 17.002C522.646 17.5293 522.454 18.0436 522.07 18.5449C523.685 18.2194 524.948 17.819 525.859 17.3438C526.016 17.2591 526.149 17.2168 526.26 17.2168C526.507 17.2168 526.631 17.3405 526.631 17.5879C526.631 17.7962 526.504 17.9883 526.25 18.1641C525.996 18.3333 525.576 18.5417 524.99 18.7891C524.404 19.0299 523.708 19.2741 522.9 19.5215C521.019 20.0944 519.001 20.3809 516.846 20.3809ZM532.422 17.9102C533.646 17.9102 534.668 16.9727 535.488 15.0977C535.866 14.2383 536.055 13.5417 536.055 13.0078C536.055 12.474 535.964 12.1061 535.781 11.9043C535.605 11.7025 535.254 11.6016 534.727 11.6016C534.206 11.6016 533.639 11.8457 533.027 12.334C532.422 12.8158 531.934 13.4245 531.562 14.1602C531.191 14.8958 531.006 15.5599 531.006 16.1523C531.006 16.7383 531.136 17.1777 531.396 17.4707C531.657 17.7637 531.999 17.9102 532.422 17.9102ZM537.5 9.63867L541.973 9.84375C542.142 9.84375 542.269 9.89583 542.354 10C542.438 10.0977 542.48 10.2083 542.48 10.332C542.48 10.8073 542.282 11.5658 541.885 12.6074C541.494 13.6426 541.1 14.6712 540.703 15.6934C540.312 16.709 540.117 17.3828 540.117 17.7148C540.117 18.0404 540.166 18.2487 540.264 18.3398C540.368 18.431 540.563 18.4766 540.85 18.4766C541.136 18.4766 541.657 18.3398 542.412 18.0664C543.174 17.7865 543.688 17.5749 543.955 17.4316C544.229 17.2884 544.437 17.2168 544.58 17.2168C544.834 17.2168 544.961 17.3307 544.961 17.5586C544.961 18.0404 543.984 18.6719 542.031 19.4531C541.374 19.7201 540.579 19.9414 539.648 20.1172C538.724 20.2995 537.783 20.3906 536.826 20.3906C535.231 20.3906 534.271 19.8828 533.945 18.8672C532.93 19.8828 531.562 20.3906 529.844 20.3906C528.665 20.3906 527.669 20.1074 526.855 19.541C525.97 18.9225 525.527 17.9492 525.527 16.6211C525.527 15.2214 525.941 13.9323 526.768 12.7539C527.673 11.4453 528.883 10.5436 530.4 10.0488C531.24 9.77539 532.142 9.63867 533.105 9.63867C534.583 9.63867 535.732 10.0033 536.553 10.7324C536.559 10.6934 536.562 10.6315 536.562 10.5469L536.553 10.127C536.553 9.80143 536.868 9.63867 537.5 9.63867ZM546.826 9.95117L551.455 9.84375C551.624 9.84375 551.751 9.89583 551.836 10C551.921 10.0977 551.963 10.1888 551.963 10.2734C551.963 10.3581 551.94 10.498 551.895 10.6934C551.849 10.8887 551.79 11.1263 551.719 11.4062C551.647 11.6797 551.602 11.8555 551.582 11.9336C552.09 11.3281 552.725 10.7943 553.486 10.332C554.248 9.86979 554.919 9.63867 555.498 9.63867C556.729 9.63867 557.344 9.9056 557.344 10.4395C557.344 10.9668 557.178 11.6016 556.846 12.3438C556.514 13.0794 556.201 13.5645 555.908 13.7988C555.765 13.903 555.589 13.9551 555.381 13.9551C555.179 13.9551 554.99 13.89 554.814 13.7598C554.027 13.1738 553.167 12.8809 552.236 12.8809C551.878 12.8809 551.566 12.9069 551.299 12.959C551.045 13.8314 550.641 15.1139 550.088 16.8066C549.535 18.4928 549.229 19.4336 549.17 19.6289C549.072 19.9349 548.89 20.0879 548.623 20.0879C547.679 20.0879 546.667 20.1367 545.586 20.2344C544.505 20.3385 543.883 20.3906 543.721 20.3906C543.564 20.3906 543.441 20.3451 543.35 20.2539C543.265 20.1693 543.223 20.0684 543.223 19.9512C543.223 19.8275 543.359 19.3913 543.633 18.6426C543.913 17.8874 544.219 17.0768 544.551 16.2109C544.889 15.3451 545.195 14.3945 545.469 13.3594C545.749 12.3242 545.889 11.4746 545.889 10.8105L545.879 10.4395C545.879 10.1139 546.195 9.95117 546.826 9.95117ZM559.736 9.95117L564.902 9.84375C565.117 9.84375 565.225 9.98698 565.225 10.2734C565.225 10.4297 565.166 10.5859 565.049 10.7422C564.469 11.4909 564.001 12.3405 563.643 13.291C563.291 14.2415 563.115 15.1693 563.115 16.0742C563.115 16.543 563.213 16.9531 563.408 17.3047C563.604 17.6562 563.841 17.832 564.121 17.832C564.622 17.832 565.192 17.4154 565.83 16.582C566.475 15.7487 567.038 14.7721 567.52 13.6523C568.008 12.5326 568.324 11.5299 568.467 10.6445C568.506 10.4036 568.564 10.2344 568.643 10.1367C568.721 10.0391 568.88 9.99023 569.121 9.99023L572.939 9.88281C573.174 9.88281 573.291 9.97396 573.291 10.1562V10.293C573.291 11.0872 572.969 12.0703 572.324 13.2422C572.52 13.2747 572.754 13.291 573.027 13.291C574.049 13.291 574.98 13.0566 575.82 12.5879C576.003 12.4837 576.156 12.4316 576.279 12.4316C576.54 12.4316 576.67 12.5521 576.67 12.793C576.67 13.0273 576.53 13.252 576.25 13.4668C575.312 14.1829 574.049 14.541 572.461 14.541C572.09 14.541 571.787 14.5215 571.553 14.4824C571.507 14.5605 571.432 14.6712 571.328 14.8145C570.638 15.778 569.642 16.7253 568.34 17.6562C567.044 18.5872 565.745 19.3294 564.443 19.8828C563.141 20.4362 562.077 20.7129 561.25 20.7129C560.645 20.7129 560.023 20.4883 559.385 20.0391C558.109 19.1471 557.471 17.7799 557.471 15.9375C557.471 15.1497 557.617 14.2122 557.91 13.125C558.21 12.0378 558.545 11.1654 558.916 10.5078C559.124 10.1432 559.398 9.95768 559.736 9.95117ZM589.639 17.2168C589.867 17.2168 589.98 17.3242 589.98 17.5391C589.98 17.7474 589.824 17.9427 589.512 18.125C589.206 18.3008 588.825 18.4928 588.369 18.7012C587.913 18.903 587.285 19.1439 586.484 19.4238C584.642 20.0684 582.562 20.3906 580.244 20.3906C575.843 20.3906 573.643 19.0365 573.643 16.3281C573.643 15.0065 574.059 13.8346 574.893 12.8125C575.732 11.7839 576.855 10.9993 578.262 10.459C579.668 9.91211 581.201 9.63867 582.861 9.63867C584.521 9.63867 585.736 9.89583 586.504 10.4102C587.279 10.9245 587.666 11.6309 587.666 12.5293C587.666 13.4538 587.295 14.209 586.553 14.7949C585.817 15.3809 584.837 15.8171 583.613 16.1035C582.383 16.39 580.973 16.5918 579.385 16.709C579.489 17.7181 580.212 18.3464 581.553 18.5938C581.898 18.6523 582.262 18.6816 582.646 18.6816C584.17 18.6816 586.367 18.2227 589.238 17.3047C589.414 17.2461 589.548 17.2168 589.639 17.2168ZM579.395 15.6348C580.527 15.3223 581.423 14.8438 582.08 14.1992C582.738 13.5547 583.066 12.7767 583.066 11.8652C583.066 11.6243 582.988 11.4323 582.832 11.2891C582.676 11.1458 582.438 11.0742 582.119 11.0742C581.807 11.0742 581.478 11.2109 581.133 11.4844C580.794 11.7578 580.508 12.1159 580.273 12.5586C579.779 13.4766 579.486 14.502 579.395 15.6348ZM607.881 17.2168C608.174 17.2168 608.32 17.3503 608.32 17.6172C608.32 17.806 608.184 18.0013 607.91 18.2031C607.181 18.737 606.09 19.235 604.639 19.6973C603.193 20.1595 601.93 20.3906 600.85 20.3906C599.769 20.3906 598.971 20.2767 598.457 20.0488C597.949 19.8275 597.598 19.4336 597.402 18.8672C597.025 19.2513 596.481 19.6029 595.771 19.9219C595.062 20.2344 594.31 20.3906 593.516 20.3906C592.728 20.3906 592.083 20.319 591.582 20.1758C591.081 20.0391 590.625 19.8275 590.215 19.541C589.805 19.2546 589.479 18.8639 589.238 18.3691C589.004 17.8678 588.887 17.2852 588.887 16.6211C588.887 15.957 588.988 15.2962 589.189 14.6387C589.391 13.9811 589.701 13.3529 590.117 12.7539C590.54 12.1484 591.045 11.6146 591.631 11.1523C592.217 10.6901 592.926 10.3223 593.76 10.0488C594.6 9.77539 595.501 9.63867 596.465 9.63867C598.047 9.63867 599.362 10.0326 600.41 10.8203C600.775 8.5026 600.957 6.98893 600.957 6.2793L600.947 5.99609C600.947 5.67057 601.263 5.50781 601.895 5.50781L606.27 5.71289C606.426 5.71289 606.549 5.76172 606.641 5.85938C606.732 5.95052 606.777 6.05469 606.777 6.17188C606.777 7.1875 606.24 9.27083 605.166 12.4219C604.092 15.5664 603.555 17.2917 603.555 17.5977C603.555 17.9036 603.597 18.1217 603.682 18.252C603.773 18.3822 603.958 18.4473 604.238 18.4473C604.518 18.4473 605 18.3301 605.684 18.0957C606.367 17.8613 606.882 17.6562 607.227 17.4805C607.572 17.3047 607.79 17.2168 607.881 17.2168ZM595.781 17.9102C597.005 17.9102 598.027 16.9727 598.848 15.0977C599.316 14.1992 599.551 13.4049 599.551 12.7148C599.551 12.3372 599.46 12.0475 599.277 11.8457C599.102 11.6439 598.747 11.543 598.213 11.543C597.686 11.543 597.106 11.7904 596.475 12.2852C595.843 12.7799 595.332 13.4017 594.941 14.1504C594.557 14.8926 594.365 15.5599 594.365 16.1523C594.365 16.7383 594.495 17.1777 594.756 17.4707C595.016 17.7637 595.358 17.9102 595.781 17.9102ZM614.58 19.1699C614.202 19.5931 613.704 19.9284 613.086 20.1758C612.474 20.4232 611.803 20.5469 611.074 20.5469C610.352 20.5469 609.74 20.3613 609.238 19.9902C608.737 19.6191 608.486 19.1699 608.486 18.6426C608.486 18.1152 608.678 17.6367 609.062 17.207C609.453 16.7708 609.954 16.429 610.566 16.1816C611.178 15.9342 611.846 15.8105 612.568 15.8105C613.298 15.8105 613.91 16.0026 614.404 16.3867C614.906 16.7643 615.156 17.2168 615.156 17.7441C615.156 18.265 614.964 18.7402 614.58 19.1699Z" fill="white"/>
</svg>
